<?xml version="1.0" encoding="utf-8"?>
<!-- Generator: Adobe Illustrator 28.1.0, SVG Export Plug-In . SVG Version: 6.00 Build 0)  -->
<svg version="1.1"
	 id="Layer_1" xmlns:rdf="http://www.w3.org/1999/02/22-rdf-syntax-ns#" xmlns:inkscape="http://www.inkscape.org/namespaces/inkscape" xmlns:svg="http://www.w3.org/2000/svg" xmlns:cc="http://creativecommons.org/ns#" xmlns:dc="http://purl.org/dc/elements/1.1/"
	 xmlns="http://www.w3.org/2000/svg" xmlns:xlink="http://www.w3.org/1999/xlink" x="0px" y="0px" viewBox="0 0 811.9 694.3"
	 style="enable-background:new 0 0 811.9 694.3;" xml:space="preserve">
<style type="text/css">
	.st0{fill:#FF0000;}
	.st1{font-family:'ArialMT';}
	.st2{font-size:11.3386px;}
	.st3{fill:none;stroke:#000000;stroke-width:1.1339;stroke-linecap:round;stroke-linejoin:round;stroke-miterlimit:11.3386;}
	.st4{fill:#FFFFFF;stroke:#000000;stroke-miterlimit:10;}
	.st5{fill:none;stroke:#000000;stroke-miterlimit:10;}
	.st6{fill:none;stroke:#000000;stroke-width:0.25;stroke-miterlimit:10;}
</style>
<g id="p-1">
	<text transform="matrix(1 0 0 1 218.5439 553.6426)" class="st0 st1 st2">Wall 1</text>
	<path class="st3" d="M64,631.2h30.8c0.3,0,0.6-0.3,0.6-0.6v-10.1c0-0.6-0.6,0,0,0h20.3c0.6,0,0-0.6,0,0v10.1c0,0.3,0.3,0.6,0.6,0.6
		h21.4c0.3,0,0.6-0.3,0.6-0.6v-10.1c0-0.6-0.6,0,0,0h20.3c0.6,0,0-0.6,0,0v10.1c0,0.3,0.3,0.6,0.6,0.6h21.4c0.3,0,0.6-0.3,0.6-0.6
		v-10.1c0-0.6-0.6,0,0,0h20.3c0.6,0,0-0.6,0,0v10.1c0,0.3,0.3,0.6,0.6,0.6h21.4c0.3,0,0.6-0.3,0.6-0.6v-10.1c0-0.6-0.6,0,0,0h20.3
		c0.6,0,0-0.6,0,0v10.1c0,0.3,0.3,0.6,0.6,0.6h21.4c0.3,0,0.6-0.3,0.6-0.6v-10.1c0-0.6-0.6,0,0,0h20.3c0.6,0,0-0.6,0,0v10.1
		c0,0.3,0.3,0.6,0.6,0.6h21.4c0.3,0,0.6-0.3,0.6-0.6v-10.1c0-0.6-0.6,0,0,0H330c0.6,0,0-0.6,0,0v10.1c0,0.3,0.3,0.6,0.6,0.6h21.4
		c0.3,0,0.6-0.3,0.6-0.6v-10.1c0-0.6-0.6,0,0,0h20.3c0.6,0,0-0.6,0,0v10.1c0,0.3,0.3,0.6,0.6,0.6h30.8h10.7c0.3,0,0.6-0.3,0.6-0.6
		v-10.7v-38.7c0-0.3-0.3-0.6-0.6-0.6h-10.1c-0.6,0,0,0.6,0,0v-20.3c0-0.6-0.6,0,0,0h10.1c0.3,0,0.6-0.3,0.6-0.6v-21.4
		c0-0.3-0.3-0.6-0.6-0.6h-10.1c-0.6,0,0,0.6,0,0v-20.3c0-0.6-0.6,0,0,0h10.1c0.3,0,0.6-0.3,0.6-0.6v-38.7v-10.7
		c0-0.3-0.3-0.6-0.6-0.6h-10.7h-30.8c-0.3,0-0.6,0.3-0.6,0.6v10.1c0,0.6,0.6,0,0,0h-20.3c-0.6,0,0,0.6,0,0v-10.1
		c0-0.3-0.3-0.6-0.6-0.6h-21.4c-0.3,0-0.6,0.3-0.6,0.6v10.1c0,0.6,0.6,0,0,0h-20.3c-0.6,0,0,0.6,0,0v-10.1c0-0.3-0.3-0.6-0.6-0.6
		h-21.4c-0.3,0-0.6,0.3-0.6,0.6v10.1c0,0.6,0.6,0,0,0h-20.3c-0.6,0,0,0.6,0,0v-10.1c0-0.3-0.3-0.6-0.6-0.6h-21.4
		c-0.3,0-0.6,0.3-0.6,0.6v10.1c0,0.6,0.6,0,0,0h-20.3c-0.6,0,0,0.6,0,0v-10.1c0-0.3-0.3-0.6-0.6-0.6h-21.4c-0.3,0-0.6,0.3-0.6,0.6
		v10.1c0,0.6,0.6,0,0,0h-20.3c-0.6,0,0,0.6,0,0v-10.1c0-0.3-0.3-0.6-0.6-0.6h-21.4c-0.3,0-0.6,0.3-0.6,0.6v10.1c0,0.6,0.6,0,0,0
		h-20.3c-0.6,0,0,0.6,0,0v-10.1c0-0.3-0.3-0.6-0.6-0.6h-21.4c-0.3,0-0.6,0.3-0.6,0.6v10.1c0,0.6,0.6,0,0,0H95.4c-0.6,0,0,0.6,0,0
		v-10.1c0-0.3-0.3-0.6-0.6-0.6H64H53.3c-0.3,0-0.6,0.3-0.6,0.6v10.7v38.7c0,0.3,0.3,0.6,0.6,0.6h10.1c0.6,0,0-0.6,0,0v20.3
		c0,0.6,0.6,0,0,0H53.3c-0.3,0-0.6,0.3-0.6,0.6v21.4c0,0.3,0.3,0.6,0.6,0.6h10.1c0.6,0,0-0.6,0,0v20.3c0,0.6,0.6,0,0,0H53.3
		c-0.3,0-0.6,0.3-0.6,0.6v38.7v10.7c0,0.3,0.3,0.6,0.6,0.6H64"/>
</g>
<g id="p-2">
	<text transform="matrix(1 0 0 1 537.0166 553.6426)" class="st0 st1 st2">Wall 2</text>
	<path class="st3" d="M432.1,631.2h24c0.3,0,0.6-0.3,0.6-0.6v-10.1c0-0.6-0.6,0,0,0H477c0.6,0,0-0.6,0,0v10.1c0,0.3,0.3,0.6,0.6,0.6
		H499c0.3,0,0.6-0.3,0.6-0.6v-10.1c0-0.6-0.6,0,0,0h20.3c0.6,0,0-0.6,0,0v10.1c0,0.3,0.3,0.6,0.6,0.6h21.4c0.3,0,0.6-0.3,0.6-0.6
		v-10.1c0-0.6-0.6,0,0,0h20.3c0.6,0,0-0.6,0,0v10.1c0,0.3,0.3,0.6,0.6,0.6h21.4c0.3,0,0.6-0.3,0.6-0.6v-10.1c0-0.6-0.6,0,0,0h20.3
		c0.6,0,0-0.6,0,0v10.1c0,0.3,0.3,0.6,0.6,0.6h21.4c0.3,0,0.6-0.3,0.6-0.6v-10.1c0-0.6-0.6,0,0,0h20.3c0.6,0,0-0.6,0,0v10.1
		c0,0.3,0.3,0.6,0.6,0.6h24c0.3,0,0.6-0.3,0.6-0.6v-10.7v-38.2c0-0.6-0.6,0,0,0h10.1c0.3,0,0.6-0.3,0.6-0.6v-21.4
		c0-0.3-0.3-0.6-0.6-0.6h-10.1c-0.6,0,0,0.6,0,0v-20.3c0-0.6-0.6,0,0,0h10.1c0.3,0,0.6-0.3,0.6-0.6v-21.4c0-0.3-0.3-0.6-0.6-0.6
		h-10.1c-0.6,0,0,0.6,0,0v-38.2v-10.7c0-0.3-0.3-0.6-0.6-0.6h-24c-0.3,0-0.6,0.3-0.6,0.6v10.1c0,0.6,0.6,0,0,0h-20.3
		c-0.6,0,0,0.6,0,0v-10.1c0-0.3-0.3-0.6-0.6-0.6h-21.4c-0.3,0-0.6,0.3-0.6,0.6v10.1c0,0.6,0.6,0,0,0h-20.3c-0.6,0,0,0.6,0,0v-10.1
		c0-0.3-0.3-0.6-0.6-0.6h-21.4c-0.3,0-0.6,0.3-0.6,0.6v10.1c0,0.6,0.6,0,0,0h-20.3c-0.6,0,0,0.6,0,0v-10.1c0-0.3-0.3-0.6-0.6-0.6
		h-21.4c-0.3,0-0.6,0.3-0.6,0.6v10.1c0,0.6,0.6,0,0,0h-20.3c-0.6,0,0,0.6,0,0v-10.1c0-0.3-0.3-0.6-0.6-0.6h-21.4
		c-0.3,0-0.6,0.3-0.6,0.6v10.1c0,0.6,0.6,0,0,0h-20.3c-0.6,0,0,0.6,0,0v-10.1c0-0.3-0.3-0.6-0.6-0.6h-24c-0.3,0-0.6,0.3-0.6,0.6
		v10.7v38.2c0,0.6,0.6,0,0,0h-10.1c-0.3,0-0.6,0.3-0.6,0.6v21.4c0,0.3,0.3,0.6,0.6,0.6h10.1c0.6,0,0-0.6,0,0v20.3c0,0.6,0.6,0,0,0
		h-10.1c-0.3,0-0.6,0.3-0.6,0.6v21.4c0,0.3,0.3,0.6,0.6,0.6h10.1c0.6,0,0-0.6,0,0v38.2v10.7C431.5,630.9,431.8,631.2,432.1,631.2"/>
</g>
<g id="p-3">
	<text transform="matrix(1 0 0 1 537.0166 383.9883)" class="st0 st1 st2">Wall 4</text>
	<path class="st3" d="M432.1,461.5h24c0.3,0,0.6-0.3,0.6-0.6v-10.1c0-0.6-0.6,0,0,0H477c0.6,0,0-0.6,0,0v10.1c0,0.3,0.3,0.6,0.6,0.6
		H499c0.3,0,0.6-0.3,0.6-0.6v-10.1c0-0.6-0.6,0,0,0h20.3c0.6,0,0-0.6,0,0v10.1c0,0.3,0.3,0.6,0.6,0.6h21.4c0.3,0,0.6-0.3,0.6-0.6
		v-10.1c0-0.6-0.6,0,0,0h20.3c0.6,0,0-0.6,0,0v10.1c0,0.3,0.3,0.6,0.6,0.6h21.4c0.3,0,0.6-0.3,0.6-0.6v-10.1c0-0.6-0.6,0,0,0h20.3
		c0.6,0,0-0.6,0,0v10.1c0,0.3,0.3,0.6,0.6,0.6h21.4c0.3,0,0.6-0.3,0.6-0.6v-10.1c0-0.6-0.6,0,0,0h20.3c0.6,0,0-0.6,0,0v10.1
		c0,0.3,0.3,0.6,0.6,0.6h24c0.3,0,0.6-0.3,0.6-0.6v-10.7v-38.2c0-0.6-0.6,0,0,0h10.1c0.3,0,0.6-0.3,0.6-0.6v-21.4
		c0-0.3-0.3-0.6-0.6-0.6h-10.1c-0.6,0,0,0.6,0,0v-20.3c0-0.6-0.6,0,0,0h10.1c0.3,0,0.6-0.3,0.6-0.6v-21.4c0-0.3-0.3-0.6-0.6-0.6
		h-10.1c-0.6,0,0,0.6,0,0v-38.2v-10.7c0-0.3-0.3-0.6-0.6-0.6h-24c-0.3,0-0.6,0.3-0.6,0.6v10.1c0,0.6,0.6,0,0,0h-20.3
		c-0.6,0,0,0.6,0,0v-10.1c0-0.3-0.3-0.6-0.6-0.6h-21.4c-0.3,0-0.6,0.3-0.6,0.6v10.1c0,0.6,0.6,0,0,0h-20.3c-0.6,0,0,0.6,0,0v-10.1
		c0-0.3-0.3-0.6-0.6-0.6h-21.4c-0.3,0-0.6,0.3-0.6,0.6v10.1c0,0.6,0.6,0,0,0h-20.3c-0.6,0,0,0.6,0,0v-10.1c0-0.3-0.3-0.6-0.6-0.6
		h-21.4c-0.3,0-0.6,0.3-0.6,0.6v10.1c0,0.6,0.6,0,0,0h-20.3c-0.6,0,0,0.6,0,0v-10.1c0-0.3-0.3-0.6-0.6-0.6h-21.4
		c-0.3,0-0.6,0.3-0.6,0.6v10.1c0,0.6,0.6,0,0,0h-20.3c-0.6,0,0,0.6,0,0v-10.1c0-0.3-0.3-0.6-0.6-0.6h-24c-0.3,0-0.6,0.3-0.6,0.6
		v10.7v38.2c0,0.6,0.6,0,0,0h-10.1c-0.3,0-0.6,0.3-0.6,0.6v21.4c0,0.3,0.3,0.6,0.6,0.6h10.1c0.6,0,0-0.6,0,0v20.3c0,0.6,0.6,0,0,0
		h-10.1c-0.3,0-0.6,0.3-0.6,0.6v21.4c0,0.3,0.3,0.6,0.6,0.6h10.1c0.6,0,0-0.6,0,0v38.2v10.7C431.5,461.3,431.8,461.5,432.1,461.5"/>
</g>
<g id="p-4">
	<text transform="matrix(1 0 0 1 218.5439 383.9883)" class="st0 st1 st2">Wall 3</text>
	<path class="st3" d="M64,461.5h30.8c0.3,0,0.6-0.3,0.6-0.6v-10.1c0-0.6-0.6,0,0,0h20.3c0.6,0,0-0.6,0,0v10.1c0,0.3,0.3,0.6,0.6,0.6
		h21.4c0.3,0,0.6-0.3,0.6-0.6v-10.1c0-0.6-0.6,0,0,0h20.3c0.6,0,0-0.6,0,0v10.1c0,0.3,0.3,0.6,0.6,0.6h21.4c0.3,0,0.6-0.3,0.6-0.6
		v-10.1c0-0.6-0.6,0,0,0h20.3c0.6,0,0-0.6,0,0v10.1c0,0.3,0.3,0.6,0.6,0.6h21.4c0.3,0,0.6-0.3,0.6-0.6v-10.1c0-0.6-0.6,0,0,0h20.3
		c0.6,0,0-0.6,0,0v10.1c0,0.3,0.3,0.6,0.6,0.6h21.4c0.3,0,0.6-0.3,0.6-0.6v-10.1c0-0.6-0.6,0,0,0h20.3c0.6,0,0-0.6,0,0v10.1
		c0,0.3,0.3,0.6,0.6,0.6h21.4c0.3,0,0.6-0.3,0.6-0.6v-10.1c0-0.6-0.6,0,0,0H330c0.6,0,0-0.6,0,0v10.1c0,0.3,0.3,0.6,0.6,0.6h21.4
		c0.3,0,0.6-0.3,0.6-0.6v-10.1c0-0.6-0.6,0,0,0h20.3c0.6,0,0-0.6,0,0v10.1c0,0.3,0.3,0.6,0.6,0.6h30.8h10.7c0.3,0,0.6-0.3,0.6-0.6
		v-10.7v-38.7c0-0.3-0.3-0.6-0.6-0.6h-10.1c-0.6,0,0,0.6,0,0v-20.3c0-0.6-0.6,0,0,0h10.1c0.3,0,0.6-0.3,0.6-0.6v-21.4
		c0-0.3-0.3-0.6-0.6-0.6h-10.1c-0.6,0,0,0.6,0,0v-20.3c0-0.6-0.6,0,0,0h10.1c0.3,0,0.6-0.3,0.6-0.6v-38.7v-10.7
		c0-0.3-0.3-0.6-0.6-0.6h-10.7h-30.8c-0.3,0-0.6,0.3-0.6,0.6v10.1c0,0.6,0.6,0,0,0h-20.3c-0.6,0,0,0.6,0,0v-10.1
		c0-0.3-0.3-0.6-0.6-0.6h-21.4c-0.3,0-0.6,0.3-0.6,0.6v10.1c0,0.6,0.6,0,0,0h-20.3c-0.6,0,0,0.6,0,0v-10.1c0-0.3-0.3-0.6-0.6-0.6
		h-21.4c-0.3,0-0.6,0.3-0.6,0.6v10.1c0,0.6,0.6,0,0,0h-20.3c-0.6,0,0,0.6,0,0v-10.1c0-0.3-0.3-0.6-0.6-0.6h-21.4
		c-0.3,0-0.6,0.3-0.6,0.6v10.1c0,0.6,0.6,0,0,0h-20.3c-0.6,0,0,0.6,0,0v-10.1c0-0.3-0.3-0.6-0.6-0.6h-21.4c-0.3,0-0.6,0.3-0.6,0.6
		v10.1c0,0.6,0.6,0,0,0h-20.3c-0.6,0,0,0.6,0,0v-10.1c0-0.3-0.3-0.6-0.6-0.6h-21.4c-0.3,0-0.6,0.3-0.6,0.6v10.1c0,0.6,0.6,0,0,0
		h-20.3c-0.6,0,0,0.6,0,0v-10.1c0-0.3-0.3-0.6-0.6-0.6h-21.4c-0.3,0-0.6,0.3-0.6,0.6v10.1c0,0.6,0.6,0,0,0H95.4c-0.6,0,0,0.6,0,0
		v-10.1c0-0.3-0.3-0.6-0.6-0.6H64H53.3c-0.3,0-0.6,0.3-0.6,0.6v10.7v38.7c0,0.3,0.3,0.6,0.6,0.6h10.1c0.6,0,0-0.6,0,0v20.3
		c0,0.6,0.6,0,0,0H53.3c-0.3,0-0.6,0.3-0.6,0.6v21.4c0,0.3,0.3,0.6,0.6,0.6h10.1c0.6,0,0-0.6,0,0v20.3c0,0.6,0.6,0,0,0H53.3
		c-0.3,0-0.6,0.3-0.6,0.6v38.7v10.7c0,0.3,0.3,0.6,0.6,0.6H64"/>
</g>
<g>
	<path class="st3" d="M432.1,282.7h30.2c0.6,0,0-0.6,0,0v10.1c0,0.3,0.3,0.6,0.6,0.6h21.4c0.3,0,0.6-0.3,0.6-0.6v-10.1
		c0-0.6-0.6,0,0,0h20.3c0.6,0,0-0.6,0,0v10.1c0,0.3,0.3,0.6,0.6,0.6h21.4c0.3,0,0.6-0.3,0.6-0.6v-10.1c0-0.6-0.6,0,0,0H548
		c0.6,0,0-0.6,0,0v10.1c0,0.3,0.3,0.6,0.6,0.6H570c0.3,0,0.6-0.3,0.6-0.6v-10.1c0-0.6-0.6,0,0,0h20.3c0.6,0,0-0.6,0,0v10.1
		c0,0.3,0.3,0.6,0.6,0.6h21.4c0.3,0,0.6-0.3,0.6-0.6v-10.1c0-0.6-0.6,0,0,0h20.3c0.6,0,0-0.6,0,0v10.1c0,0.3,0.3,0.6,0.6,0.6h21.4
		c0.3,0,0.6-0.3,0.6-0.6v-10.1c0-0.6-0.6,0,0,0h20.3c0.6,0,0-0.6,0,0v10.1c0,0.3,0.3,0.6,0.6,0.6h21.4c0.3,0,0.6-0.3,0.6-0.6v-10.1
		c0-0.6-0.6,0,0,0h20.3c0.6,0,0-0.6,0,0v10.1c0,0.3,0.3,0.6,0.6,0.6h21.4c0.3,0,0.6-0.3,0.6-0.6v-10.1c0-0.6-0.6,0,0,0h30.2
		c0.3,0,0.6-0.3,0.6-0.6v-23.5c0-0.6-0.6,0,0,0H783c0.3,0,0.6-0.3,0.6-0.6v-21.4c0-0.3-0.3-0.6-0.6-0.6h-10.1c-0.6,0,0,0.6,0,0
		v-20.3c0-0.6-0.6,0,0,0H783c0.3,0,0.6-0.3,0.6-0.6v-21.4c0-0.3-0.3-0.6-0.6-0.6h-10.1c-0.6,0,0,0.6,0,0v-20.3c0-0.6-0.6,0,0,0H783
		c0.3,0,0.6-0.3,0.6-0.6v-21.4c0-0.3-0.3-0.6-0.6-0.6h-10.1c-0.6,0,0,0.6,0,0v-20.3c0-0.6-0.6,0,0,0H783c0.3,0,0.6-0.3,0.6-0.6
		v-21.4c0-0.3-0.3-0.6-0.6-0.6h-10.1c-0.6,0,0,0.6,0,0V87.2c0-0.6-0.6,0,0,0H783c0.3,0,0.6-0.3,0.6-0.6V65.2c0-0.3-0.3-0.6-0.6-0.6
		h-10.1c-0.6,0,0,0.6,0,0V41.2c0-0.3-0.3-0.6-0.6-0.6H742c-0.6,0,0,0.6,0,0V30.4c0-0.3-0.3-0.6-0.6-0.6H720c-0.3,0-0.6,0.3-0.6,0.6
		v10.1c0,0.6,0.6,0,0,0h-20.3c-0.6,0,0,0.6,0,0V30.4c0-0.3-0.3-0.6-0.6-0.6h-21.4c-0.3,0-0.6,0.3-0.6,0.6v10.1c0,0.6,0.6,0,0,0
		h-20.3c-0.6,0,0,0.6,0,0V30.4c0-0.3-0.3-0.6-0.6-0.6h-21.4c-0.3,0-0.6,0.3-0.6,0.6v10.1c0,0.6,0.6,0,0,0h-20.3c-0.6,0,0,0.6,0,0
		V30.4c0-0.3-0.3-0.6-0.6-0.6h-21.4c-0.3,0-0.6,0.3-0.6,0.6v10.1c0,0.6,0.6,0,0,0h-20.3c-0.6,0,0,0.6,0,0V30.4
		c0-0.3-0.3-0.6-0.6-0.6h-21.4c-0.3,0-0.6,0.3-0.6,0.6v10.1c0,0.6,0.6,0,0,0h-20.3c-0.6,0,0,0.6,0,0V30.4c0-0.3-0.3-0.6-0.6-0.6
		h-21.4c-0.3,0-0.6,0.3-0.6,0.6v10.1c0,0.6,0.6,0,0,0h-20.3c-0.6,0,0,0.6,0,0V30.4c0-0.3-0.3-0.6-0.6-0.6h-21.4
		c-0.3,0-0.6,0.3-0.6,0.6v10.1c0,0.6,0.6,0,0,0h-30.2c-0.3,0-0.6,0.3-0.6,0.6v23.5c0,0.6,0.6,0,0,0h-10.1c-0.3,0-0.6,0.3-0.6,0.6
		v21.4c0,0.3,0.3,0.6,0.6,0.6h10.1c0.6,0,0-0.6,0,0v20.3c0,0.6,0.6,0,0,0h-10.1c-0.3,0-0.6,0.3-0.6,0.6v21.4c0,0.3,0.3,0.6,0.6,0.6
		h10.1c0.6,0,0-0.6,0,0v20.3c0,0.6,0.6,0,0,0h-10.1c-0.3,0-0.6,0.3-0.6,0.6v21.4c0,0.3,0.3,0.6,0.6,0.6h10.1c0.6,0,0-0.6,0,0v20.3
		c0,0.6,0.6,0,0,0h-10.1c-0.3,0-0.6,0.3-0.6,0.6v21.4c0,0.3,0.3,0.6,0.6,0.6h10.1c0.6,0,0-0.6,0,0v20.3c0,0.6,0.6,0,0,0h-10.1
		c-0.3,0-0.6,0.3-0.6,0.6v21.4c0,0.3,0.3,0.6,0.6,0.6h10.1c0.6,0,0-0.6,0,0v23.5C431.5,282.4,431.8,282.7,432.1,282.7"/>
	<g>
		<circle class="st4" cx="510" cy="190.4" r="3.6"/>
		<circle class="st4" cx="466.8" cy="190.4" r="3.6"/>
		<circle class="st4" cx="510" cy="132.8" r="3.6"/>
		<circle class="st4" cx="466.8" cy="132.8" r="3.6"/>
	</g>
	<path class="st5" d="M488.4,161.6"/>
	<path class="st5" d="M488.4,161.6"/>
	<g>
		<circle class="st4" cx="687.7" cy="190.4" r="3.6"/>
		<circle class="st4" cx="687.7" cy="132.8" r="3.6"/>
		<circle class="st4" cx="723.7" cy="132.8" r="3.6"/>
		<circle class="st4" cx="723.7" cy="190.4" r="3.6"/>
		<path class="st4" d="M730.9,145.6v32c0,3.1-2.5,5.5-5.5,5.5h-2.9c-3.1,0-5.5,2.5-5.5,5.5v3.4c0,3.1-2.5,5.5-5.5,5.5H700
			c-3.1,0-5.5-2.5-5.5-5.5v-3.4c0-3.1-2.5-5.5-5.5-5.5H686c-3.1,0-5.5-2.5-5.5-5.5v-32c0-3.1,2.5-5.5,5.5-5.5h2.9
			c3.1,0,5.5-2.5,5.5-5.5v-3.4c0-3.1,2.5-5.5,5.5-5.5h11.4c3.1,0,5.5,2.5,5.5,5.5v3.4c0,3.1,2.5,5.5,5.5,5.5h2.9
			C728.4,140.1,730.9,142.6,730.9,145.6z"/>
	</g>
	<path class="st4" d="M517.2,143.2v36.9c0,2.7-2.2,4.9-4.9,4.9h-4.6c-2.7,0-4.9,2.2-4.9,4.9v4.6c0,2.7-2.2,4.9-4.9,4.9h-19
		c-2.7,0-4.9-2.2-4.9-4.9v-4.6c0-2.7-2.2-4.9-4.9-4.9h-4.6c-2.7,0-4.9-2.2-4.9-4.9v-36.4c0-2.7,2.2-4.9,4.9-4.9h3.1
		c2.7,0,4.9-2.2,4.9-4.9v-5.2c0-2.7,2.2-4.9,4.9-4.9h20.9c2.7,0,4.9,2.2,4.9,4.9v4.6c0,2.7,2.2,4.9,4.9,4.9h4.2
		C515,138.3,517.2,140.5,517.2,143.2z"/>
	<g>
		<path class="st6" d="M625.6,127.6c2,0,3.6,1.6,3.6,3.6s-1.6,3.6-3.6,3.6c-2,0-3.6-1.6-3.6-3.6S623.7,127.6,625.6,127.6z"/>
		<path class="st6" d="M585.6,131.2c0-2,1.6-3.6,3.6-3.6c2,0,3.6,1.6,3.6,3.6s-1.6,3.6-3.6,3.6C587.2,134.8,585.6,133.2,585.6,131.2
			z"/>
		<path class="st6" d="M593.3,191.5c0.1,2-1.4,3.7-3.4,3.8c-2,0.1-3.7-1.4-3.8-3.4c-0.1-2,1.4-3.7,3.4-3.8
			C591.5,188,593.2,189.6,593.3,191.5z"/>
		<path class="st6" d="M625.6,188.1c2,0,3.6,1.6,3.6,3.6s-1.6,3.6-3.6,3.6c-2,0-3.6-1.6-3.6-3.6S623.7,188.1,625.6,188.1z"/>
		<path class="st6" d="M593.1,186.3h-6.7c-1.2,0-2.1,0.9-2.1,2.1v6.5c0,1.2-0.9,2.1-2.1,2.1h-16.9c-1.2,0-2.1-0.9-2.1-2.1v-66.6
			c0-1.2,0.9-2.1,2.1-2.1h16.9c1.2,0,2.1,0.9,2.1,2.1v6.5c0,1.2,0.9,2.1,2.1,2.1h6.7c1.2,0,2.1-0.9,2.1-2.1v-6.5
			c0-1.2,0.9-2.1,2.1-2.1h20.5c1.2,0,2.1,0.9,2.1,2.1v6.5c0,1.2,0.9,2.1,2.1,2.1h6.6c1.2,0,2.1,0.9,2.1,2.1v45.2
			c0,1.2-0.9,2.1-2.1,2.1h-6.6c-1.2,0-2.1,0.9-2.1,2.1v6.5c0,1.2-0.9,2.1-2.1,2.1h-20.5c-1.2,0-2.1-0.9-2.1-2.1v-6.5
			C595.3,187.3,594.3,186.3,593.1,186.3z"/>
		<g>
			<path class="st4" d="M589.9,195.3c-2,0.1-3.7-1.4-3.8-3.4c-0.1-2,1.4-3.7,3.4-3.8c2-0.1,3.7,1.4,3.8,3.4
				C593.4,193.5,591.9,195.2,589.9,195.3z"/>
			<path class="st4" d="M625.6,195.3c-2,0-3.6-1.6-3.6-3.6s1.6-3.6,3.6-3.6c2,0,3.6,1.6,3.6,3.6S627.6,195.3,625.6,195.3z"/>
			<path class="st4" d="M625.6,134.8c-2,0-3.6-1.6-3.6-3.6s1.6-3.6,3.6-3.6c2,0,3.6,1.6,3.6,3.6S627.6,134.8,625.6,134.8z"/>
			<path class="st4" d="M589.2,134.8c-2,0-3.6-1.6-3.6-3.6s1.6-3.6,3.6-3.6c2,0,3.6,1.6,3.6,3.6S591.1,134.8,589.2,134.8z"/>
		</g>
		<path class="st6" d="M625.6,134.8c-2,0-3.6-1.6-3.6-3.6s1.6-3.6,3.6-3.6c2,0,3.6,1.6,3.6,3.6S627.6,134.8,625.6,134.8z"/>
		<path class="st6" d="M625.6,195.3c-2,0-3.6-1.6-3.6-3.6s1.6-3.6,3.6-3.6c2,0,3.6,1.6,3.6,3.6S627.6,195.3,625.6,195.3z"/>
		<path class="st6" d="M589.9,195.3c-2,0.1-3.7-1.4-3.8-3.4c-0.1-2,1.4-3.7,3.4-3.8c2-0.1,3.7,1.4,3.8,3.4
			C593.4,193.5,591.9,195.2,589.9,195.3z"/>
		<path class="st6" d="M589.2,134.8c-2,0-3.6-1.6-3.6-3.6s1.6-3.6,3.6-3.6c2,0,3.6,1.6,3.6,3.6S591.1,134.8,589.2,134.8z"/>
	</g>
</g>
</svg>
