<?xml version="1.0" encoding="utf-8"?>
<!-- Generator: Adobe Illustrator 28.1.0, SVG Export Plug-In . SVG Version: 6.00 Build 0)  -->
<svg version="1.1"
	 id="Layer_1" xmlns:dc="http://purl.org/dc/elements/1.1/" xmlns:svg="http://www.w3.org/2000/svg" xmlns:rdf="http://www.w3.org/1999/02/22-rdf-syntax-ns#" xmlns:cc="http://creativecommons.org/ns#" xmlns:inkscape="http://www.inkscape.org/namespaces/inkscape"
	 xmlns="http://www.w3.org/2000/svg" xmlns:xlink="http://www.w3.org/1999/xlink" x="0px" y="0px" viewBox="0 0 2485.3 1349.4"
	 style="enable-background:new 0 0 2485.3 1349.4;" xml:space="preserve">
<style type="text/css">
	.st0{fill:#FF0000;}
	.st1{font-family:'ArialMT';}
	.st2{font-size:11.3386px;}
	.st3{fill:none;stroke:#000000;stroke-width:0.5669;stroke-linecap:round;stroke-linejoin:round;stroke-miterlimit:11.3386;}
	.st4{fill:none;stroke:#000000;stroke-miterlimit:10;}
	.st5{fill:#FFFFFF;stroke:#000000;stroke-miterlimit:10;}
	.st6{fill:none;stroke:#000000;stroke-width:0.25;stroke-miterlimit:10;}
	.st7{fill:none;stroke:#000000;stroke-width:0.5669;stroke-miterlimit:10;}
</style>
<g id="p-1">
	<text transform="matrix(-1.836970e-16 -1 1 -1.836970e-16 940.1941 250.2861)" class="st0 st1 st2">Wall 1</text>
	<path class="st3" d="M1077.9,408.2v-33.4c0-0.2-0.1-0.3-0.3-0.3h-10.5c-0.3,0,0,0.3,0,0v-21c0-0.3-0.3,0,0,0h10.5
		c0.2,0,0.3-0.1,0.3-0.3v-21.5c0-0.2-0.1-0.3-0.3-0.3h-10.5c-0.3,0,0,0.3,0,0v-21c0-0.3-0.3,0,0,0h10.5c0.2,0,0.3-0.1,0.3-0.3v-21.5
		c0-0.2-0.1-0.3-0.3-0.3h-10.5c-0.3,0,0,0.3,0,0v-21c0-0.3-0.3,0,0,0h10.5c0.2,0,0.3-0.1,0.3-0.3v-21.5c0-0.2-0.1-0.3-0.3-0.3h-10.5
		c-0.3,0,0,0.3,0,0v-21c0-0.3-0.3,0,0,0h10.5c0.2,0,0.3-0.1,0.3-0.3v-21.5c0-0.2-0.1-0.3-0.3-0.3h-10.5c-0.3,0,0,0.3,0,0v-21
		c0-0.3-0.3,0,0,0h10.5c0.2,0,0.3-0.1,0.3-0.3v-21.5c0-0.2-0.1-0.3-0.3-0.3h-10.5c-0.3,0,0,0.3,0,0v-21c0-0.3-0.3,0,0,0h10.5
		c0.2,0,0.3-0.1,0.3-0.3v-21.4c0-0.2-0.1-0.3-0.3-0.3h-10.5c-0.3,0,0,0.3,0,0V95c0-0.3-0.3,0,0,0h10.5c0.2,0,0.3-0.1,0.3-0.3V61.3
		V50.5c0-0.2-0.1-0.3-0.3-0.3h-10.8h-34c-0.2,0-0.3,0.1-0.3,0.3V61c0,0.3,0.3,0,0,0h-21c-0.3,0,0,0.3,0,0V50.5
		c0-0.2-0.1-0.3-0.3-0.3h-21.5c-0.2,0-0.3,0.1-0.3,0.3V61c0,0.3,0.3,0,0,0h-21c-0.3,0,0,0.3,0,0V50.5c0-0.2-0.1-0.3-0.3-0.3h-21.4
		c-0.2,0-0.3,0.1-0.3,0.3V61c0,0.3,0.3,0,0,0h-21c-0.3,0,0,0.3,0,0V50.5c0-0.2-0.1-0.3-0.3-0.3h-21.5c-0.2,0-0.3,0.1-0.3,0.3V61
		c0,0.3,0.3,0,0,0h-21c-0.3,0,0,0.3,0,0V50.5c0-0.2-0.1-0.3-0.3-0.3h-21.5c-0.2,0-0.3,0.1-0.3,0.3V61c0,0.3,0.3,0,0,0h-21
		c-0.3,0,0,0.3,0,0V50.5c0-0.2-0.1-0.3-0.3-0.3h-34h-10.8c-0.2,0-0.3,0.1-0.3,0.3v10.8v33.4c0,0.2,0.1,0.3,0.3,0.3h10.6
		c0.3,0,0-0.3,0,0v21c0,0.3,0.3,0,0,0h-10.5c-0.2,0-0.3,0.1-0.3,0.3v21.5c0,0.2,0.1,0.3,0.3,0.3h10.5c0.3,0,0-0.3,0,0v21
		c0,0.3,0.3,0,0,0h-10.5c-0.2,0-0.3,0.1-0.3,0.3v21.5c0,0.2,0.1,0.3,0.3,0.3h10.5c0.3,0,0-0.3,0,0v21c0,0.3,0.3,0,0,0h-10.5
		c-0.2,0-0.3,0.1-0.3,0.3V224c0,0.2,0.1,0.3,0.3,0.3h10.5c0.3,0,0-0.3,0,0v21c0,0.3,0.3,0,0,0h-10.5c-0.2,0-0.3,0.1-0.3,0.3v21.5
		c0,0.2,0.1,0.3,0.3,0.3h10.5c0.3,0,0-0.3,0,0v21c0,0.3,0.3,0,0,0h-10.5c-0.2,0-0.3,0.1-0.3,0.3v21.5c0,0.2,0.1,0.3,0.3,0.3h10.5
		c0.3,0,0-0.3,0,0v21c0,0.3,0.3,0,0,0h-10.5c-0.2,0-0.3,0.1-0.3,0.3v21.5c0,0.2,0.1,0.3,0.3,0.3h10.5c0.3,0,0-0.3,0,0v21
		c0,0.3,0.3,0,0,0h-10.5c-0.2,0-0.3,0.1-0.3,0.3v33.3V419c0,0.2,0.1,0.3,0.3,0.3H805h34c0.2,0,0.3-0.1,0.3-0.3v-10.5
		c0-0.3-0.3,0,0,0h21c0.3,0,0-0.3,0,0V419c0,0.2,0.1,0.3,0.3,0.3h21.5c0.2,0,0.3-0.1,0.3-0.3v-10.5c0-0.3-0.3,0,0,0h21
		c0.3,0,0-0.3,0,0V419c0,0.2,0.1,0.3,0.3,0.3h21.5c0.2,0,0.3-0.1,0.3-0.3v-10.5c0-0.3-0.3,0,0,0h21c0.3,0,0-0.3,0,0V419
		c0,0.2,0.1,0.3,0.3,0.3h21.5c0.2,0,0.3-0.1,0.3-0.3v-10.5c0-0.3-0.3,0,0,0h21c0.3,0,0-0.3,0,0V419c0,0.2,0.1,0.3,0.3,0.3h21.5
		c0.2,0,0.3-0.1,0.3-0.3v-10.5c0-0.3-0.3,0,0,0h21c0.3,0,0-0.3,0,0V419c0,0.2,0.1,0.3,0.3,0.3h34h10.8c0.2,0,0.3-0.1,0.3-0.3v-10.8"
		/>
</g>
<g id="p-2">
	<text transform="matrix(-1.836970e-16 -1 1 -1.836970e-16 948.094 907.8887)" class="st0 st1 st2">Wall 2</text>
	<path class="st3" d="M1085.8,1023.3v-34c0-0.2-0.1-0.3-0.3-0.3H1075c-0.3,0,0,0.3,0,0v-21c0-0.3-0.3,0,0,0h10.5
		c0.2,0,0.3-0.1,0.3-0.3v-21.5c0-0.2-0.1-0.3-0.3-0.3H1075c-0.3,0,0,0.3,0,0v-21c0-0.3-0.3,0,0,0h10.5c0.2,0,0.3-0.1,0.3-0.3v-21.5
		c0-0.2-0.1-0.3-0.3-0.3H1075c-0.3,0,0,0.3,0,0v-21c0-0.3-0.3,0,0,0h10.5c0.2,0,0.3-0.1,0.3-0.3V860c0-0.2-0.1-0.3-0.3-0.3H1075
		c-0.3,0,0,0.3,0,0v-21c0-0.3-0.3,0,0,0h10.5c0.2,0,0.3-0.1,0.3-0.3v-21.5c0-0.2-0.1-0.3-0.3-0.3H1075c-0.3,0,0,0.3,0,0v-21
		c0-0.3-0.3,0,0,0h10.5c0.2,0,0.3-0.1,0.3-0.3v-34c0-0.2-0.1-0.3-0.3-0.3h-10.8H1041c-0.3,0,0,0.3,0,0v-10.5c0-0.2-0.1-0.3-0.3-0.3
		h-21.5c-0.2,0-0.3,0.1-0.3,0.3V761c0,0.3,0.3,0,0,0h-21c-0.3,0,0,0.3,0,0v-10.5c0-0.2-0.1-0.3-0.3-0.3h-21.5
		c-0.2,0-0.3,0.1-0.3,0.3V761c0,0.3,0.3,0,0,0h-21c-0.3,0,0,0.3,0,0v-10.5c0-0.2-0.1-0.3-0.3-0.3H933c-0.2,0-0.3,0.1-0.3,0.3V761
		c0,0.3,0.3,0,0,0h-21c-0.3,0,0,0.3,0,0v-10.5c0-0.2-0.1-0.3-0.3-0.3h-21.5c-0.2,0-0.3,0.1-0.3,0.3V761c0,0.3,0.3,0,0,0h-21
		c-0.3,0,0,0.3,0,0v-10.5c0-0.2-0.1-0.3-0.3-0.3h-21.5c-0.2,0-0.3,0.1-0.3,0.3V761c0,0.3,0.3,0,0,0h-33.7H802
		c-0.2,0-0.3,0.1-0.3,0.3v34c0,0.2,0.1,0.3,0.3,0.3h10.6c0.3,0,0-0.3,0,0v21c0,0.3,0.3,0,0,0h-10.5c-0.2,0-0.3,0.1-0.3,0.3v21.5
		c0,0.2,0.1,0.3,0.3,0.3h10.5c0.3,0,0-0.3,0,0v21c0,0.3,0.3,0,0,0h-10.5c-0.2,0-0.3,0.1-0.3,0.3v21.5c0,0.2,0.1,0.3,0.3,0.3h10.5
		c0.3,0,0-0.3,0,0v21c0,0.3,0.3,0,0,0h-10.5c-0.2,0-0.3,0.1-0.3,0.3v21.5c0,0.2,0.1,0.3,0.3,0.3h10.5c0.3,0,0-0.3,0,0v21
		c0,0.3,0.3,0,0,0h-10.5c-0.2,0-0.3,0.1-0.3,0.3v21.5c0,0.2,0.1,0.3,0.3,0.3h10.5c0.3,0,0-0.3,0,0v21c0,0.3,0.3,0,0,0h-10.5
		c-0.2,0-0.3,0.1-0.3,0.3v34c0,0.2,0.1,0.3,0.3,0.3h10.8h33.7c0.3,0,0-0.3,0,0v10.5c0,0.2,0.1,0.3,0.3,0.3h21.5
		c0.2,0,0.3-0.1,0.3-0.3v-10.5c0-0.3-0.3,0,0,0h21c0.3,0,0-0.3,0,0v10.5c0,0.2,0.1,0.3,0.3,0.3h21.5c0.2,0,0.3-0.1,0.3-0.3v-10.5
		c0-0.3-0.3,0,0,0h21c0.3,0,0-0.3,0,0v10.5c0,0.2,0.1,0.3,0.3,0.3h21.5c0.2,0,0.3-0.1,0.3-0.3v-10.5c0-0.3-0.3,0,0,0h21
		c0.3,0,0-0.3,0,0v10.5c0,0.2,0.1,0.3,0.3,0.3h21.5c0.2,0,0.3-0.1,0.3-0.3v-10.5c0-0.3-0.3,0,0,0h21c0.3,0,0-0.3,0,0v10.5
		c0,0.2,0.1,0.3,0.3,0.3h21.5c0.2,0,0.3-0.1,0.3-0.3v-10.5c0-0.3-0.3,0,0,0h33.7h10.8C1085.7,1023.6,1085.8,1023.4,1085.8,1023.3"/>
</g>
<g id="p-4">
	<text transform="matrix(-1.836970e-16 -1 1 -1.836970e-16 1242.4652 865.4248)" class="st0 st1 st2">Wall 3</text>
	<path class="st3" d="M1380.1,1023.3v-33.4c0-0.2-0.1-0.3-0.3-0.3h-10.5c-0.3,0,0,0.3,0,0v-21c0-0.3-0.3,0,0,0h10.5
		c0.2,0,0.3-0.1,0.3-0.3v-21.5c0-0.2-0.1-0.3-0.3-0.3h-10.5c-0.3,0,0,0.3,0,0v-21c0-0.3-0.3,0,0,0h10.5c0.2,0,0.3-0.1,0.3-0.3v-21.5
		c0-0.2-0.1-0.3-0.3-0.3h-10.5c-0.3,0,0,0.3,0,0v-21c0-0.3-0.3,0,0,0h10.5c0.2,0,0.3-0.1,0.3-0.3v-21.5c0-0.2-0.1-0.3-0.3-0.3h-10.5
		c-0.3,0,0,0.3,0,0v-21c0-0.3-0.3,0,0,0h10.5c0.2,0,0.3-0.1,0.3-0.3v-21.5c0-0.2-0.1-0.3-0.3-0.3h-10.5c-0.3,0,0,0.3,0,0v-21
		c0-0.3-0.3,0,0,0h10.5c0.2,0,0.3-0.1,0.3-0.3v-21.5c0-0.2-0.1-0.3-0.3-0.3h-10.5c-0.3,0,0,0.3,0,0v-21c0-0.3-0.3,0,0,0h10.5
		c0.2,0,0.3-0.1,0.3-0.3v-21.4c0-0.2-0.1-0.3-0.3-0.3h-10.5c-0.3,0,0,0.3,0,0v-21c0-0.3-0.3,0,0,0h10.5c0.2,0,0.3-0.1,0.3-0.3v-33.4
		v-10.8c0-0.2-0.1-0.3-0.3-0.3H1369h-34c-0.2,0-0.3,0.1-0.3,0.3v10.5c0,0.3,0.3,0,0,0h-21c-0.3,0,0,0.3,0,0v-10.5
		c0-0.2-0.1-0.3-0.3-0.3h-21.5c-0.2,0-0.3,0.1-0.3,0.3v10.5c0,0.3,0.3,0,0,0h-21c-0.3,0,0,0.3,0,0v-10.5c0-0.2-0.1-0.3-0.3-0.3
		h-21.5c-0.2,0-0.3,0.1-0.3,0.3v10.5c0,0.3,0.3,0,0,0h-21c-0.3,0,0,0.3,0,0v-10.5c0-0.2-0.1-0.3-0.3-0.3h-21.5
		c-0.2,0-0.3,0.1-0.3,0.3v10.5c0,0.3,0.3,0,0,0h-21c-0.3,0,0,0.3,0,0v-10.5c0-0.2-0.1-0.3-0.3-0.3h-21.5c-0.2,0-0.3,0.1-0.3,0.3
		v10.5c0,0.3,0.3,0,0,0h-21c-0.3,0,0,0.3,0,0v-10.5c0-0.2-0.1-0.3-0.3-0.3h-34h-10.7c-0.2,0-0.3,0.1-0.3,0.3v10.8v33.4
		c0,0.2,0.1,0.3,0.3,0.3h10.5c0.3,0,0-0.3,0,0v21c0,0.3,0.3,0,0,0h-10.5c-0.2,0-0.3,0.1-0.3,0.3v21.5c0,0.2,0.1,0.3,0.3,0.3h10.5
		c0.3,0,0-0.3,0,0v21c0,0.3,0.3,0,0,0h-10.5c-0.2,0-0.3,0.1-0.3,0.3V796c0,0.2,0.1,0.3,0.3,0.3h10.5c0.3,0,0-0.3,0,0v21
		c0,0.3,0.3,0,0,0h-10.5c-0.2,0-0.3,0.1-0.3,0.3v21.5c0,0.2,0.1,0.3,0.3,0.3h10.5c0.3,0,0-0.3,0,0v21c0,0.3,0.3,0,0,0h-10.5
		c-0.2,0-0.3,0.1-0.3,0.3v21.5c0,0.2,0.1,0.3,0.3,0.3h10.5c0.3,0,0-0.3,0,0v21c0,0.3,0.3,0,0,0h-10.5c-0.2,0-0.3,0.1-0.3,0.3v21.5
		c0,0.2,0.1,0.3,0.3,0.3h10.5c0.3,0,0-0.3,0,0v21c0,0.3,0.3,0,0,0h-10.5c-0.2,0-0.3,0.1-0.3,0.3v21.5c0,0.2,0.1,0.3,0.3,0.3h10.5
		c0.3,0,0-0.3,0,0v21c0,0.3,0.3,0,0,0h-10.5c-0.2,0-0.3,0.1-0.3,0.3v33.3v10.8c0,0.2,0.1,0.3,0.3,0.3h10.8h34c0.2,0,0.3-0.1,0.3-0.3
		v-10.5c0-0.3-0.3,0,0,0h21c0.3,0,0-0.3,0,0v10.5c0,0.2,0.1,0.3,0.3,0.3h21.5c0.2,0,0.3-0.1,0.3-0.3v-10.5c0-0.3-0.3,0,0,0h21
		c0.3,0,0-0.3,0,0v10.5c0,0.2,0.1,0.3,0.3,0.3h21.5c0.2,0,0.3-0.1,0.3-0.3v-10.5c0-0.3-0.3,0,0,0h21c0.3,0,0-0.3,0,0v10.5
		c0,0.2,0.1,0.3,0.3,0.3h21.5c0.2,0,0.3-0.1,0.3-0.3v-10.5c0-0.3-0.3,0,0,0h21c0.3,0,0-0.3,0,0v10.5c0,0.2,0.1,0.3,0.3,0.3h21.5
		c0.2,0,0.3-0.1,0.3-0.3v-10.5c0-0.3-0.3,0,0,0h21c0.3,0,0-0.3,0,0v10.5c0,0.2,0.1,0.3,0.3,0.3h34h10.8c0.2,0,0.3-0.1,0.3-0.3
		L1380.1,1023.3"/>
</g>
<g id="p-5_00000041292036889100574970000001168824283675606170_">
	<text transform="matrix(1 0 0 1 203.2661 1065.9589)" class="st0 st1 st2">Top</text>
	<path class="st3" d="M38.9,1192.9h33.2c0.3,0,0-0.3,0,0v10.5c0,0.2,0.1,0.3,0.3,0.3h21.5c0.2,0,0.3-0.1,0.3-0.3v-10.5
		c0-0.3-0.3,0,0,0h21c0.3,0,0-0.3,0,0v10.5c0,0.2,0.1,0.3,0.3,0.3H137c0.2,0,0.3-0.1,0.3-0.3v-10.5c0-0.3-0.3,0,0,0h21
		c0.3,0,0-0.3,0,0v10.5c0,0.2,0.1,0.3,0.3,0.3h21.5c0.2,0,0.3-0.1,0.3-0.3v-10.5c0-0.3-0.3,0,0,0h21c0.3,0,0-0.3,0,0v10.5
		c0,0.2,0.1,0.3,0.3,0.3h21.5c0.2,0,0.3-0.1,0.3-0.3v-10.5c0-0.3-0.3,0,0,0h21c0.3,0,0-0.3,0,0v10.5c0,0.2,0.1,0.3,0.3,0.3h21.5
		c0.2,0,0.3-0.1,0.3-0.3v-10.5c0-0.3-0.3,0,0,0h21c0.3,0,0-0.3,0,0v10.5c0,0.2,0.1,0.3,0.3,0.3h21.5c0.2,0,0.3-0.1,0.3-0.3v-10.5
		c0-0.3-0.3,0,0,0h21c0.3,0,0-0.3,0,0v10.5c0,0.2,0.1,0.3,0.3,0.3h21.5c0.2,0,0.3-0.1,0.3-0.3v-10.5c0-0.3-0.3,0,0,0h33.1
		c0.2,0,0.3-0.1,0.3-0.3v-33.7c0-0.3-0.3,0,0,0h10.5c0.2,0,0.3-0.1,0.3-0.3v-21.5c0-0.2-0.1-0.3-0.3-0.3h-10.5c-0.3,0,0,0.3,0,0v-21
		c0-0.3-0.3,0,0,0h10.5c0.2,0,0.3-0.1,0.3-0.3V1094c0-0.2-0.1-0.3-0.3-0.3h-10.5c-0.3,0,0,0.3,0,0v-21c0-0.3-0.3,0,0,0h10.5
		c0.2,0,0.3-0.1,0.3-0.3v-21.5c0-0.2-0.1-0.3-0.3-0.3h-10.5c-0.3,0,0,0.3,0,0v-21c0-0.3-0.3,0,0,0h10.5c0.2,0,0.3-0.1,0.3-0.3v-21.5
		c0-0.2-0.1-0.3-0.3-0.3h-10.5c-0.3,0,0,0.3,0,0v-21c0-0.3-0.3,0,0,0h10.5c0.2,0,0.3-0.1,0.3-0.3v-21.5c0-0.2-0.1-0.3-0.3-0.3h-10.5
		c-0.3,0,0,0.3,0,0v-33.7c0-0.2-0.1-0.3-0.3-0.3h-33.2c-0.3,0,0,0.3,0,0v-10.5c0-0.2-0.1-0.3-0.3-0.3h-21.5c-0.2,0-0.3,0.1-0.3,0.3
		v10.5c0,0.3,0.3,0,0,0h-21c-0.3,0,0,0.3,0,0v-10.5c0-0.2-0.1-0.3-0.3-0.3h-21.5c-0.2,0-0.3,0.1-0.3,0.3v10.5c0,0.3,0.3,0,0,0h-21
		c-0.3,0,0,0.3,0,0v-10.5c0-0.2-0.1-0.3-0.3-0.3h-21.5c-0.2,0-0.3,0.1-0.3,0.3v10.5c0,0.3,0.3,0,0,0h-21c-0.3,0,0,0.3,0,0v-10.5
		c0-0.2-0.1-0.3-0.3-0.3h-21.5c-0.2,0-0.3,0.1-0.3,0.3v10.5c0,0.3,0.3,0,0,0h-21c-0.3,0,0,0.3,0,0v-10.5c0-0.2-0.1-0.3-0.3-0.3
		h-21.5c-0.2,0-0.3,0.1-0.3,0.3v10.5c0,0.3,0.3,0,0,0h-21c-0.3,0,0,0.3,0,0v-10.5c0-0.2-0.1-0.3-0.3-0.3h-21.5
		c-0.2,0-0.3,0.1-0.3,0.3v10.5c0,0.3,0.3,0,0,0h-21c-0.3,0,0,0.3,0,0v-10.5c0-0.2-0.1-0.3-0.3-0.3H72.4c-0.2,0-0.3,0.1-0.3,0.3v10.5
		c0,0.3,0.3,0,0,0H38.9c-0.2,0-0.3,0.1-0.3,0.3v33.7c0,0.3,0.3,0,0,0H28.2c-0.2,0-0.3,0.1-0.3,0.3v21.6c0,0.2,0.1,0.3,0.3,0.3h10.5
		c0.3,0,0-0.3,0,0v21c0,0.3,0.3,0,0,0H28.2c-0.2,0-0.3,0.1-0.3,0.3v21.4c0,0.2,0.1,0.3,0.3,0.3h10.5c0.3,0,0-0.3,0,0v21
		c0,0.3,0.3,0,0,0H28.2c-0.2,0-0.3,0.1-0.3,0.3v21.5c0,0.2,0.1,0.3,0.3,0.3h10.5c0.3,0,0-0.3,0,0v21c0,0.3,0.3,0,0,0H28.2
		c-0.2,0-0.3,0.1-0.3,0.3v21.5c0,0.2,0.1,0.3,0.3,0.3h10.5c0.3,0,0-0.3,0,0v21c0,0.3,0.3,0,0,0H28.2c-0.2,0-0.3,0.1-0.3,0.3v21.5
		c0,0.2,0.1,0.3,0.3,0.3h10.5c0.3,0,0-0.3,0,0v33.7C38.7,1192.8,38.8,1192.9,38.9,1192.9"/>
</g>
<g>
	<circle class="st4" cx="264.3" cy="992.1" r="3.9"/>
	<circle class="st4" cx="99.8" cy="992" r="3.9"/>
	<circle class="st4" cx="99.6" cy="1130.9" r="3.9"/>
	<circle class="st4" cx="264.2" cy="1130.9" r="3.9"/>
	<path class="st4" d="M341.3,1146.7h-65.5v-17.6c0-5.9-4.8-10.7-10.7-10.7h-1.7c-5.9,0-10.8,4.8-10.8,10.7v17.6H111.2v-17.6
		c0-5.9-4.8-10.7-10.8-10.7h-1.7c-5.9,0-10.8,4.8-10.8,10.7v17.6h-4.4V976.6h4.7v17.6c0,5.9,4.8,10.8,10.7,10.8h1.8
		c5.9,0,10.8-4.8,10.8-10.8v-17.6h141.2v17.6c0,5.9,4.8,10.8,10.7,10.8h1.7c5.9,0,10.8-4.8,10.8-10.8v-17.6h65.4V1146.7z"/>
</g>
<g id="p-5_00000142857595232738893330000006072357883825779902_">
	<text transform="matrix(1 0 0 1 584.8737 1065.9589)" class="st0 st1 st2">Top</text>
	<path class="st3" d="M420.5,1192.9h33.2c0.3,0,0-0.3,0,0v10.5c0,0.2,0.1,0.3,0.3,0.3h21.5c0.2,0,0.3-0.1,0.3-0.3v-10.5
		c0-0.3-0.3,0,0,0h21c0.3,0,0-0.3,0,0v10.5c0,0.2,0.1,0.3,0.3,0.3h21.5c0.2,0,0.3-0.1,0.3-0.3v-10.5c0-0.3-0.3,0,0,0h21
		c0.3,0,0-0.3,0,0v10.5c0,0.2,0.1,0.3,0.3,0.3h21.5c0.2,0,0.3-0.1,0.3-0.3v-10.5c0-0.3-0.3,0,0,0h21c0.3,0,0-0.3,0,0v10.5
		c0,0.2,0.1,0.3,0.3,0.3h21.5c0.2,0,0.3-0.1,0.3-0.3v-10.5c0-0.3-0.3,0,0,0h21c0.3,0,0-0.3,0,0v10.5c0,0.2,0.1,0.3,0.3,0.3h21.5
		c0.2,0,0.3-0.1,0.3-0.3v-10.5c0-0.3-0.3,0,0,0h21c0.3,0,0-0.3,0,0v10.5c0,0.2,0.1,0.3,0.3,0.3H691c0.2,0,0.3-0.1,0.3-0.3v-10.5
		c0-0.3-0.3,0,0,0h21c0.3,0,0-0.3,0,0v10.5c0,0.2,0.1,0.3,0.3,0.3h21.5c0.2,0,0.3-0.1,0.3-0.3v-10.5c0-0.3-0.3,0,0,0h33.1
		c0.2,0,0.3-0.1,0.3-0.3v-33.7c0-0.3-0.3,0,0,0h10.5c0.2,0,0.3-0.1,0.3-0.3v-21.5c0-0.2-0.1-0.3-0.3-0.3h-10.5c-0.3,0,0,0.3,0,0v-21
		c0-0.3-0.3,0,0,0h10.5c0.2,0,0.3-0.1,0.3-0.3V1094c0-0.2-0.1-0.3-0.3-0.3h-10.5c-0.3,0,0,0.3,0,0v-21c0-0.3-0.3,0,0,0h10.5
		c0.2,0,0.3-0.1,0.3-0.3v-21.5c0-0.2-0.1-0.3-0.3-0.3h-10.5c-0.3,0,0,0.3,0,0v-21c0-0.3-0.3,0,0,0h10.5c0.2,0,0.3-0.1,0.3-0.3v-21.5
		c0-0.2-0.1-0.3-0.3-0.3h-10.5c-0.3,0,0,0.3,0,0v-21c0-0.3-0.3,0,0,0h10.5c0.2,0,0.3-0.1,0.3-0.3v-21.5c0-0.2-0.1-0.3-0.3-0.3h-10.5
		c-0.3,0,0,0.3,0,0v-33.7c0-0.2-0.1-0.3-0.3-0.3h-33.2c-0.3,0,0,0.3,0,0v-10.5c0-0.2-0.1-0.3-0.3-0.3h-21.5c-0.2,0-0.3,0.1-0.3,0.3
		v10.5c0,0.3,0.3,0,0,0h-21c-0.3,0,0,0.3,0,0v-10.5c0-0.2-0.1-0.3-0.3-0.3h-21.5c-0.2,0-0.3,0.1-0.3,0.3v10.5c0,0.3,0.3,0,0,0h-21
		c-0.3,0,0,0.3,0,0v-10.5c0-0.2-0.1-0.3-0.3-0.3h-21.5c-0.2,0-0.3,0.1-0.3,0.3v10.5c0,0.3,0.3,0,0,0h-21c-0.3,0,0,0.3,0,0v-10.5
		c0-0.2-0.1-0.3-0.3-0.3h-21.5c-0.2,0-0.3,0.1-0.3,0.3v10.5c0,0.3,0.3,0,0,0h-21c-0.3,0,0,0.3,0,0v-10.5c0-0.2-0.1-0.3-0.3-0.3
		h-21.5c-0.2,0-0.3,0.1-0.3,0.3v10.5c0,0.3,0.3,0,0,0h-21c-0.3,0,0,0.3,0,0v-10.5c0-0.2-0.1-0.3-0.3-0.3H497c-0.2,0-0.3,0.1-0.3,0.3
		v10.5c0,0.3,0.3,0,0,0h-21c-0.3,0,0,0.3,0,0v-10.5c0-0.2-0.1-0.3-0.3-0.3H454c-0.2,0-0.3,0.1-0.3,0.3v10.5c0,0.3,0.3,0,0,0h-33.2
		c-0.2,0-0.3,0.1-0.3,0.3v33.7c0,0.3,0.3,0,0,0h-10.4c-0.2,0-0.3,0.1-0.3,0.3v21.6c0,0.2,0.1,0.3,0.3,0.3h10.5c0.3,0,0-0.3,0,0v21
		c0,0.3,0.3,0,0,0h-10.5c-0.2,0-0.3,0.1-0.3,0.3v21.4c0,0.2,0.1,0.3,0.3,0.3h10.5c0.3,0,0-0.3,0,0v21c0,0.3,0.3,0,0,0h-10.5
		c-0.2,0-0.3,0.1-0.3,0.3v21.5c0,0.2,0.1,0.3,0.3,0.3h10.5c0.3,0,0-0.3,0,0v21c0,0.3,0.3,0,0,0h-10.5c-0.2,0-0.3,0.1-0.3,0.3v21.5
		c0,0.2,0.1,0.3,0.3,0.3h10.5c0.3,0,0-0.3,0,0v21c0,0.3,0.3,0,0,0h-10.5c-0.2,0-0.3,0.1-0.3,0.3v21.5c0,0.2,0.1,0.3,0.3,0.3h10.5
		c0.3,0,0-0.3,0,0v33.7C420.3,1192.8,420.4,1192.9,420.5,1192.9"/>
</g>
<g>
	<path class="st3" d="M326.6,586h33.2c0.3,0,0-0.3,0,0v10.5c0,0.2,0.1,0.3,0.3,0.3h21.5c0.2,0,0.3-0.1,0.3-0.3V586c0-0.3-0.3,0,0,0
		h21c0.3,0,0-0.3,0,0v10.5c0,0.2,0.1,0.3,0.3,0.3h21.5c0.2,0,0.3-0.1,0.3-0.3V586c0-0.3-0.3,0,0,0h21c0.3,0,0-0.3,0,0v10.5
		c0,0.2,0.1,0.3,0.3,0.3h21.5c0.2,0,0.3-0.1,0.3-0.3V586c0-0.3-0.3,0,0,0h21c0.3,0,0-0.3,0,0v10.5c0,0.2,0.1,0.3,0.3,0.3h21.5
		c0.2,0,0.3-0.1,0.3-0.3V586c0-0.3-0.3,0,0,0h21c0.3,0,0-0.3,0,0v10.5c0,0.2,0.1,0.3,0.3,0.3H554c0.2,0,0.3-0.1,0.3-0.3V586
		c0-0.3-0.3,0,0,0h21c0.3,0,0-0.3,0,0v10.5c0,0.2,0.1,0.3,0.3,0.3h21.5c0.2,0,0.3-0.1,0.3-0.3V586c0-0.3-0.3,0,0,0h21
		c0.3,0,0-0.3,0,0v10.5c0,0.2,0.1,0.3,0.3,0.3h21.4c0.2,0,0.3-0.1,0.3-0.3V586c0-0.3-0.3,0,0,0h33.2c0.2,0,0.3-0.1,0.3-0.3V552
		c0-0.3-0.3,0,0,0h10.5c0.2,0,0.3-0.1,0.3-0.3v-21.5c0-0.2-0.1-0.3-0.3-0.3h-10.5c-0.3,0,0,0.3,0,0v-21c0-0.3-0.3,0,0,0h10.5
		c0.2,0,0.3-0.1,0.3-0.3v-21.5c0-0.2-0.1-0.3-0.3-0.3h-10.5c-0.3,0,0,0.3,0,0v-21c0-0.3-0.3,0,0,0h10.5c0.2,0,0.3-0.1,0.3-0.3V444
		c0-0.2-0.1-0.3-0.3-0.3h-10.5c-0.3,0,0,0.3,0,0v-21c0-0.3-0.3,0,0,0h10.5c0.2,0,0.3-0.1,0.3-0.3v-21.5c0-0.2-0.1-0.3-0.3-0.3h-10.5
		c-0.3,0,0,0.3,0,0v-21c0-0.3-0.3,0,0,0h10.5c0.2,0,0.3-0.1,0.3-0.3v-21.5c0-0.2-0.1-0.3-0.3-0.3h-10.5c-0.3,0,0,0.3,0,0v-33.7
		c0-0.2-0.1-0.3-0.3-0.3h-33.2c-0.3,0,0,0.3,0,0V313c0-0.2-0.1-0.3-0.3-0.3h-21.5c-0.2,0-0.3,0.1-0.3,0.3v10.5c0,0.3,0.3,0,0,0h-21
		c-0.3,0,0,0.3,0,0V313c0-0.2-0.1-0.3-0.3-0.3h-21.5c-0.2,0-0.3,0.1-0.3,0.3v10.5c0,0.3,0.3,0,0,0h-21c-0.3,0,0,0.3,0,0V313
		c0-0.2-0.1-0.3-0.3-0.3h-21.5c-0.2,0-0.3,0.1-0.3,0.3v10.5c0,0.3,0.3,0,0,0h-21c-0.3,0,0,0.3,0,0V313c0-0.2-0.1-0.3-0.3-0.3h-21.5
		c-0.2,0-0.3,0.1-0.3,0.3v10.5c0,0.3,0.3,0,0,0h-21c-0.3,0,0,0.3,0,0V313c0-0.2-0.1-0.3-0.3-0.3h-21.5c-0.2,0-0.3,0.1-0.3,0.3v10.5
		c0,0.3,0.3,0,0,0h-21c-0.3,0,0,0.3,0,0V313c0-0.2-0.1-0.3-0.3-0.3h-21.5c-0.2,0-0.3,0.1-0.3,0.3v10.5c0,0.3,0.3,0,0,0h-21
		c-0.3,0,0,0.3,0,0V313c0-0.2-0.1-0.3-0.3-0.3h-21.4c-0.2,0-0.3,0.1-0.3,0.3v10.5c0,0.3,0.3,0,0,0h-33.2c-0.2,0-0.3,0.1-0.3,0.3
		v33.7c0,0.3,0.3,0,0,0h-10.5c-0.2,0-0.3,0.1-0.3,0.3v21.6c0,0.2,0.1,0.3,0.3,0.3h10.5c0.3,0,0-0.3,0,0v21c0,0.3,0.3,0,0,0h-10.5
		c-0.2,0-0.3,0.1-0.3,0.3v21.5c0,0.2,0.1,0.3,0.3,0.3h10.5c0.3,0,0-0.3,0,0v21c0,0.3,0.3,0,0,0h-10.5c-0.2,0-0.3,0.1-0.3,0.3v21.5
		c0,0.2,0.1,0.3,0.3,0.3h10.5c0.3,0,0-0.3,0,0v21c0,0.3,0.3,0,0,0h-10.5c-0.2,0-0.3,0.1-0.3,0.3v21.5c0,0.2,0.1,0.3,0.3,0.3h10.5
		c0.3,0,0-0.3,0,0v21c0,0.3,0.3,0,0,0h-10.5c-0.2,0-0.3,0.1-0.3,0.3v21.5c0,0.2,0.1,0.3,0.3,0.3h10.5c0.3,0,0-0.3,0,0v33.7
		C326.3,585.9,326.5,586,326.6,586"/>
	<g>
		<circle class="st5" cx="369" cy="483.1" r="3.6"/>
		<circle class="st5" cx="369" cy="425.5" r="3.6"/>
		<circle class="st5" cx="405" cy="425.5" r="3.6"/>
		<circle class="st5" cx="405" cy="483.1" r="3.6"/>
		<path class="st5" d="M412.2,438.3v32c0,3.1-2.5,5.5-5.5,5.5h-2.9c-3.1,0-5.5,2.5-5.5,5.5v3.4c0,3.1-2.5,5.5-5.5,5.5h-11.4
			c-3.1,0-5.5-2.5-5.5-5.5v-3.3c0-3.1-2.5-5.5-5.5-5.5h-2.9c-3.1,0-5.5-2.5-5.5-5.5v-32c0-3.1,2.5-5.5,5.5-5.5h2.9
			c3.1,0,5.5-2.5,5.5-5.5V424c0-3.1,2.5-5.5,5.5-5.5h11.4c3.1,0,5.5,2.5,5.5,5.5v3.4c0,3.1,2.5,5.5,5.5,5.5h2.9
			C409.8,432.8,412.2,435.2,412.2,438.3z"/>
	</g>
	<g>
		<g>
			<circle class="st5" cx="521.7" cy="483.1" r="3.6"/>
			<circle class="st5" cx="478.5" cy="483.1" r="3.6"/>
			<circle class="st5" cx="521.7" cy="425.5" r="3.6"/>
			<circle class="st5" cx="478.5" cy="425.5" r="3.6"/>
		</g>
		<path class="st4" d="M500.1,454.3"/>
		<path class="st4" d="M500.1,454.3"/>
		<path class="st5" d="M528.9,435.9v36.9c0,2.7-2.2,4.9-4.9,4.9h-4.6c-2.7,0-4.9,2.2-4.9,4.9v4.6c0,2.7-2.2,4.9-4.9,4.9h-19
			c-2.7,0-4.9-2.2-4.9-4.9v-4.6c0-2.7-2.2-4.9-4.9-4.9h-4.6c-2.7,0-4.9-2.2-4.9-4.9v-36.4c0-2.7,2.2-4.9,4.9-4.9h3.1
			c2.7,0,4.9-2.2,4.9-4.9v-5.2c0-2.7,2.2-4.9,4.9-4.9H510c2.7,0,4.9,2.2,4.9,4.9v4.6c0,2.7,2.2,4.9,4.9,4.9h4.2
			C526.7,431,528.9,433.2,528.9,435.9z"/>
	</g>
	<g>
		<path class="st6" d="M622.5,476.7h-5.2c-3,0-5.4,2.4-5.4,5.4v2.3c0,3-2.4,5.4-5.4,5.4h-7.1c-3,0-5.4-2.4-5.4-5.4v-60.1
			c0-3,2.4-5.4,5.4-5.4h7.1c3,0,5.4,2.4,5.4,5.4v3c0,3,2.4,5.4,5.4,5.4h5.2c3,0,5.4-2.4,5.4-5.4v-3c0-3,2.4-5.4,5.4-5.4h12.2
			c3,0,3.8,2.1,3.8,5.1l0,0c0,3,1.9,8,7.2,6.2l0,0c3,0,5.4,1.9,5.4,4.9v36.3c0,3-2.4,5.4-5.4,5.4h-2.4c-3,0-5.4,2.4-5.4,5.4v2.2
			c0,3-2.4,5.4-5.4,5.4h-10.1c-3,0-5.4-2.4-5.4-5.4v-2.3C627.9,479.1,625.5,476.7,622.5,476.7z"/>
		<circle class="st5" cx="620.6" cy="484.4" r="3.6"/>
		<circle class="st5" cx="656.5" cy="484.4" r="3.6"/>
		<circle class="st5" cx="620" cy="423.9" r="3.6"/>
		<path class="st5" d="M656.5,427.5c-2,0-3.6-1.6-3.6-3.6s1.6-3.6,3.6-3.6s3.6,1.6,3.6,3.6S658.5,427.5,656.5,427.5z"/>
	</g>
</g>
<g>
	<g id="p-3_00000182517036261484119350000005283941633801983667_">
		<text transform="matrix(1 0 0 1 143.8184 461.1351)" class="st0 st1 st2">Wall 4</text>
		<path class="st3" d="M28.4,598.8h34c0.2,0,0.3-0.1,0.3-0.3V588c0-0.3-0.3,0,0,0h21c0.3,0,0-0.3,0,0v10.5c0,0.2,0.1,0.3,0.3,0.3
			h21.5c0.2,0,0.3-0.1,0.3-0.3V588c0-0.3-0.3,0,0,0h21c0.3,0,0-0.3,0,0v10.5c0,0.2,0.1,0.3,0.3,0.3h21.5c0.2,0,0.3-0.1,0.3-0.3V588
			c0-0.3-0.3,0,0,0h21c0.3,0,0-0.3,0,0v10.5c0,0.2,0.1,0.3,0.3,0.3h21.5c0.2,0,0.3-0.1,0.3-0.3V588c0-0.3-0.3,0,0,0h21
			c0.3,0,0-0.3,0,0v10.5c0,0.2,0.1,0.3,0.3,0.3h21.5c0.2,0,0.3-0.1,0.3-0.3V588c0-0.3-0.3,0,0,0h21c0.3,0,0-0.3,0,0v10.5
			c0,0.2,0.1,0.3,0.3,0.3h34c0.2,0,0.3-0.1,0.3-0.3v-10.8V554c0-0.3-0.3,0,0,0h10.5c0.2,0,0.3-0.1,0.3-0.3v-21.5
			c0-0.2-0.1-0.3-0.3-0.3h-10.5c-0.3,0,0,0.3,0,0v-21c0-0.3-0.3,0,0,0h10.5c0.2,0,0.3-0.1,0.3-0.3v-21.5c0-0.2-0.1-0.3-0.3-0.3
			h-10.5c-0.3,0,0,0.3,0,0v-21c0-0.3-0.3,0,0,0h10.5c0.2,0,0.3-0.1,0.3-0.3V446c0-0.2-0.1-0.3-0.3-0.3h-10.5c-0.3,0,0,0.3,0,0v-21
			c0-0.3-0.3,0,0,0h10.5c0.2,0,0.3-0.1,0.3-0.3v-21.5c0-0.2-0.1-0.3-0.3-0.3h-10.5c-0.3,0,0,0.3,0,0v-21c0-0.3-0.3,0,0,0h10.5
			c0.2,0,0.3-0.1,0.3-0.3v-21.5c0-0.2-0.1-0.3-0.3-0.3h-10.5c-0.3,0,0,0.3,0,0v-33.7V315c0-0.2-0.1-0.3-0.3-0.3h-34
			c-0.2,0-0.3,0.1-0.3,0.3v10.5c0,0.3,0.3,0,0,0h-21c-0.3,0,0,0.3,0,0V315c0-0.2-0.1-0.3-0.3-0.3h-21.5c-0.2,0-0.3,0.1-0.3,0.3v10.5
			c0,0.3,0.3,0,0,0h-21c-0.3,0,0,0.3,0,0V315c0-0.2-0.1-0.3-0.3-0.3h-21.5c-0.2,0-0.3,0.1-0.3,0.3v10.5c0,0.3,0.3,0,0,0h-21
			c-0.3,0,0,0.3,0,0V315c0-0.2-0.1-0.3-0.3-0.3h-21.5c-0.2,0-0.3,0.1-0.3,0.3v10.5c0,0.3,0.3,0,0,0h-21c-0.3,0,0,0.3,0,0V315
			c0-0.2-0.1-0.3-0.3-0.3H84c-0.2,0-0.3,0.1-0.3,0.3v10.5c0,0.3,0.3,0,0,0h-21c-0.3,0,0,0.3,0,0V315c0-0.2-0.1-0.3-0.3-0.3h-34
			c-0.2,0-0.3,0.1-0.3,0.3v10.8v33.7c0,0.3,0.3,0,0,0H17.6c-0.2,0-0.3,0.1-0.3,0.3v21.5c0,0.2,0.1,0.3,0.3,0.3h10.5c0.3,0,0-0.3,0,0
			v21c0,0.3,0.3,0,0,0H17.6c-0.2,0-0.3,0.1-0.3,0.3v21.5c0,0.2,0.1,0.3,0.3,0.3h10.5c0.3,0,0-0.3,0,0v21c0,0.3,0.3,0,0,0H17.6
			c-0.2,0-0.3,0.1-0.3,0.3v21.5c0,0.2,0.1,0.3,0.3,0.3h10.5c0.3,0,0-0.3,0,0v21c0,0.3,0.3,0,0,0H17.6c-0.2,0-0.3,0.1-0.3,0.3v21.5
			c0,0.2,0.1,0.3,0.3,0.3h10.5c0.3,0,0-0.3,0,0v21c0,0.3,0.3,0,0,0H17.6c-0.2,0-0.3,0.1-0.3,0.3v21.5c0,0.2,0.1,0.3,0.3,0.3h10.5
			c0.3,0,0-0.3,0,0v33.7v10.8C28.1,598.7,28.2,598.8,28.4,598.8"/>
	</g>
	<g>
		<g>
			<g>
				<path class="st5" d="M102.6,371.2c-2,0-3.6-1.6-3.6-3.6s1.6-3.6,3.6-3.6s3.6,1.6,3.6,3.6S104.6,371.2,102.6,371.2z"/>
				<path class="st5" d="M216,371.2c-2,0-3.6-1.6-3.6-3.6s1.6-3.6,3.6-3.6s3.6,1.6,3.6,3.6S218,371.2,216,371.2z"/>
				<path class="st4" d="M216,367.6"/>
				<path class="st4" d="M102.6,367.6"/>
			</g>
			<g>
				<path class="st5" d="M238.7,569.6c-2,0-3.6-1.6-3.6-3.6s1.6-3.6,3.6-3.6s3.6,1.6,3.6,3.6S240.7,569.6,238.7,569.6z"/>
				<path class="st4" d="M238.7,566"/>
				<path class="st4" d="M80,566"/>
				<path class="st5" d="M80,569.6c-2,0-3.6-1.6-3.6-3.6s1.6-3.6,3.6-3.6s3.6,1.6,3.6,3.6S82,569.6,80,569.6z"/>
			</g>
		</g>
		<rect x="102.6" y="417.1" class="st4" width="117" height="108.6"/>
	</g>
</g>
<rect x="818.9" y="816.6" class="st7" width="62.3" height="151.4"/>
<g id="p-2_00000156590118937292620510000009018737572800145561_">
	<text transform="matrix(-1.836970e-16 -1 1 -1.836970e-16 948.094 607.8311)" class="st0 st1 st2">Wall 2</text>
	<path class="st3" d="M1085.8,723.3v-34c0-0.2-0.1-0.3-0.3-0.3H1075c-0.3,0,0,0.3,0,0v-21c0-0.3-0.3,0,0,0h10.5
		c0.2,0,0.3-0.1,0.3-0.3v-21.5c0-0.2-0.1-0.3-0.3-0.3H1075c-0.3,0,0,0.3,0,0v-21c0-0.3-0.3,0,0,0h10.5c0.2,0,0.3-0.1,0.3-0.3v-21.5
		c0-0.2-0.1-0.3-0.3-0.3H1075c-0.3,0,0,0.3,0,0v-21c0-0.3-0.3,0,0,0h10.5c0.2,0,0.3-0.1,0.3-0.3V560c0-0.2-0.1-0.3-0.3-0.3H1075
		c-0.3,0,0,0.3,0,0v-21c0-0.3-0.3,0,0,0h10.5c0.2,0,0.3-0.1,0.3-0.3v-21.5c0-0.2-0.1-0.3-0.3-0.3H1075c-0.3,0,0,0.3,0,0v-21
		c0-0.3-0.3,0,0,0h10.5c0.2,0,0.3-0.1,0.3-0.3v-34c0-0.2-0.1-0.3-0.3-0.3h-10.8H1041c-0.3,0,0,0.3,0,0v-10.5c0-0.2-0.1-0.3-0.3-0.3
		h-21.5c-0.2,0-0.3,0.1-0.3,0.3V461c0,0.3,0.3,0,0,0h-21c-0.3,0,0,0.3,0,0v-10.5c0-0.2-0.1-0.3-0.3-0.3h-21.5
		c-0.2,0-0.3,0.1-0.3,0.3V461c0,0.3,0.3,0,0,0h-21c-0.3,0,0,0.3,0,0v-10.5c0-0.2-0.1-0.3-0.3-0.3H933c-0.2,0-0.3,0.1-0.3,0.3V461
		c0,0.3,0.3,0,0,0h-21c-0.3,0,0,0.3,0,0v-10.5c0-0.2-0.1-0.3-0.3-0.3h-21.5c-0.2,0-0.3,0.1-0.3,0.3V461c0,0.3,0.3,0,0,0h-21
		c-0.3,0,0,0.3,0,0v-10.5c0-0.2-0.1-0.3-0.3-0.3h-21.5c-0.2,0-0.3,0.1-0.3,0.3V461c0,0.3,0.3,0,0,0h-33.7H802
		c-0.2,0-0.3,0.1-0.3,0.3v34c0,0.2,0.1,0.3,0.3,0.3h10.6c0.3,0,0-0.3,0,0v21c0,0.3,0.3,0,0,0h-10.5c-0.2,0-0.3,0.1-0.3,0.3v21.5
		c0,0.2,0.1,0.3,0.3,0.3h10.5c0.3,0,0-0.3,0,0v21c0,0.3,0.3,0,0,0h-10.5c-0.2,0-0.3,0.1-0.3,0.3v21.5c0,0.2,0.1,0.3,0.3,0.3h10.5
		c0.3,0,0-0.3,0,0v21c0,0.3,0.3,0,0,0h-10.5c-0.2,0-0.3,0.1-0.3,0.3v21.5c0,0.2,0.1,0.3,0.3,0.3h10.5c0.3,0,0-0.3,0,0v21
		c0,0.3,0.3,0,0,0h-10.5c-0.2,0-0.3,0.1-0.3,0.3v21.5c0,0.2,0.1,0.3,0.3,0.3h10.5c0.3,0,0-0.3,0,0v21c0,0.3,0.3,0,0,0h-10.5
		c-0.2,0-0.3,0.1-0.3,0.3v34c0,0.2,0.1,0.3,0.3,0.3h10.8h33.7c0.3,0,0-0.3,0,0v10.5c0,0.2,0.1,0.3,0.3,0.3h21.5
		c0.2,0,0.3-0.1,0.3-0.3v-10.5c0-0.3-0.3,0,0,0h21c0.3,0,0-0.3,0,0v10.5c0,0.2,0.1,0.3,0.3,0.3h21.5c0.2,0,0.3-0.1,0.3-0.3v-10.5
		c0-0.3-0.3,0,0,0h21c0.3,0,0-0.3,0,0v10.5c0,0.2,0.1,0.3,0.3,0.3h21.5c0.2,0,0.3-0.1,0.3-0.3v-10.5c0-0.3-0.3,0,0,0h21
		c0.3,0,0-0.3,0,0v10.5c0,0.2,0.1,0.3,0.3,0.3h21.5c0.2,0,0.3-0.1,0.3-0.3v-10.5c0-0.3-0.3,0,0,0h21c0.3,0,0-0.3,0,0v10.5
		c0,0.2,0.1,0.3,0.3,0.3h21.5c0.2,0,0.3-0.1,0.3-0.3v-10.5c0-0.3-0.3,0,0,0h33.7h10.8C1085.7,723.6,1085.8,723.4,1085.8,723.3"/>
</g>
<rect x="812.7" y="516.6" class="st7" width="62.3" height="151.4"/>
<rect x="804.7" y="116" class="st7" width="46.8" height="151.4"/>
<path class="st3" d="M512.3,683h10.5c0.2,0,0.3-0.1,0.3-0.3v-21.5c0-0.2-0.1-0.3-0.3-0.3h-10.5c0,0.3-0.3,0,0,0v-33.7
	c0-0.2-0.1-0.3-0.3-0.3h-33.2c0,0.3-0.3,0,0,0v-10.5c0-0.2-0.1-0.3-0.3-0.3H457c-0.2,0-0.3,0.1-0.3,0.3v10.5c0.3,0,0,0.3,0,0h-21
	c0,0.3-0.3,0,0,0v-10.5c0-0.2-0.1-0.3-0.3-0.3h-21.5c-0.2,0-0.3,0.1-0.3,0.3v10.5c0.3,0,0,0.3,0,0h-21c0,0.3-0.3,0,0,0v-10.5
	c0-0.2-0.1-0.3-0.3-0.3h-21.5c-0.2,0-0.3,0.1-0.3,0.3v10.5c0.3,0,0,0.3,0,0h-21c0,0.3-0.3,0,0,0v-10.5c0-0.2-0.1-0.3-0.3-0.3h-21.5
	c-0.2,0-0.3,0.1-0.3,0.3v10.5c0.3,0,0,0.3,0,0h-21c0,0.3-0.3,0,0,0v-10.5c0-0.2-0.1-0.3-0.3-0.3h-21.5c-0.2,0-0.3,0.1-0.3,0.3v10.5
	c0.3,0,0,0.3,0,0h-21c0,0.3-0.3,0,0,0v-10.5c0-0.2-0.1-0.3-0.3-0.3h-21.5c-0.2,0-0.3,0.1-0.3,0.3v10.5c0.3,0,0,0.3,0,0h-21
	c0,0.3-0.3,0,0,0v-10.5c0-0.2-0.1-0.3-0.3-0.3h-21.4c-0.2,0-0.3,0.1-0.3,0.3v-0.3H135c-0.2,0-0.3,0.1-0.3,0.3v10.5c0.3,0,0,0.3,0,0
	h-21c0,0.3-0.3,0,0,0v-10.5c0-0.2-0.1-0.3-0.3-0.3H91.9c-0.2,0-0.3,0.1-0.3,0.3v10.5c0.3,0,0,0.3,0,0h-21c0,0.3-0.3,0,0,0v-10.5
	c0-0.2-0.1-0.3-0.3-0.3H17.6c-0.2,0-0.3,0.1-0.3,0.3v44.8c0,0.2,0.1,0.3,0.3,0.3h10.5c0-0.3,0.3,0,0,0v21c0.3,0,0,0.3,0,0H17.6
	c-0.2,0-0.3,0.1-0.3,0.3v21.5c0,0.2,0.1,0.3,0.3,0.3h10.5c0-0.3,0.3,0,0,0v21c0.3,0,0,0.3,0,0H17.6c-0.2,0-0.3,0.1-0.3,0.3v21.5
	c0,0.2,0.1,0.3,0.3,0.3h10.5c0-0.3,0.3,0,0,0v21c0.3,0,0,0.3,0,0H17.6c-0.2,0-0.3,0.1-0.3,0.3v21.5c0,0.2,0.1,0.3,0.3,0.3h10.5
	c0-0.3,0.3,0,0,0v21c0.3,0,0,0.3,0,0H17.6c-0.2,0-0.3,0.1-0.3,0.3v21.5c0,0.2,0.1,0.3,0.3,0.3h10.5c0-0.3,0.3,0,0,0v21
	c0.3,0,0,0.3,0,0H17.6c-0.2,0-0.3,0.1-0.3,0.3V900c0,0.2,0.1,0.3,0.3,0.3h52.7c0.2,0,0.3-0.1,0.3-0.3v-10.5c-0.3,0,0-0.3,0,0h21
	c0-0.3,0.3,0,0,0V900c0,0.2,0.1,0.3,0.3,0.3h21.5c0.2,0,0.3-0.1,0.3-0.3v-10.5c-0.3,0,0-0.3,0,0h21c0-0.3,0.3,0,0,0V900
	c0,0.2,0.1,0.3,0.3,0.3h63.2V900c0,0.2,0.1,0.3,0.3,0.3H220c0.2,0,0.3-0.1,0.3-0.3v-10.5c-0.3,0,0-0.3,0,0h21c0-0.3,0.3,0,0,0V900
	c0,0.2,0.1,0.3,0.3,0.3h21.5c0.2,0,0.3-0.1,0.3-0.3v-10.5c-0.3,0,0-0.3,0,0h21c0-0.3,0.3,0,0,0V900c0,0.2,0.1,0.3,0.3,0.3h21.5
	c0.2,0,0.3-0.1,0.3-0.3v-10.5c-0.3,0,0-0.3,0,0h21c0-0.3,0.3,0,0,0V900c0,0.2,0.1,0.3,0.3,0.3h21.5c0.2,0,0.3-0.1,0.3-0.3v-10.5
	c-0.3,0,0-0.3,0,0h21c0-0.3,0.3,0,0,0V900c0,0.2,0.1,0.3,0.3,0.3h21.5c0.2,0,0.3-0.1,0.3-0.3v-10.5c-0.3,0,0-0.3,0,0h21
	c0-0.3,0.3,0,0,0V900c0,0.2,0.1,0.3,0.3,0.3h21.5c0.2,0,0.3-0.1,0.3-0.3v-10.5c-0.3,0,0-0.3,0,0h21c0-0.3,0.3,0,0,0V900
	c0,0.2,0.1,0.3,0.3,0.3h21.5c0.2,0,0.3-0.1,0.3-0.3v-10.5c-0.3,0,0-0.3,0,0H512c0.2,0,0.3-0.1,0.3-0.3v-33.7c-0.3,0,0-0.3,0,0h10.5
	c0.2,0,0.3-0.1,0.3-0.3v-21.5c0-0.2-0.1-0.3-0.3-0.3h-10.5c0,0.3-0.3,0,0,0v-21c-0.3,0,0-0.3,0,0h10.5c0.2,0,0.3-0.1,0.3-0.3v-21.5
	c0-0.2-0.1-0.3-0.3-0.3h-10.5c0,0.3-0.3,0,0,0v-21c-0.3,0,0-0.3,0,0h10.5c0.2,0,0.3-0.1,0.3-0.3v-21.5c0-0.2-0.1-0.3-0.3-0.3h-10.5
	c0,0.3-0.3,0,0,0v-21c-0.3,0,0-0.3,0,0h10.5c0.2,0,0.3-0.1,0.3-0.3v-21.5c0-0.2-0.1-0.3-0.3-0.3h-10.5c0,0.3-0.3,0,0,0V683
	C512,683,512.3,682.7,512.3,683z M177.2,682.5C177.2,682.8,176.9,682.5,177.2,682.5L177.2,682.5z M177.2,661.5
	C176.9,661.5,177.2,661.2,177.2,661.5L177.2,661.5z M177.2,704.6C176.9,704.6,177.2,704.3,177.2,704.6L177.2,704.6z M177.2,725.6
	C177.2,725.8,176.9,725.6,177.2,725.6L177.2,725.6z M177.2,747.7C176.9,747.7,177.2,747.4,177.2,747.7L177.2,747.7z M177.2,768.6
	C177.2,768.9,176.9,768.6,177.2,768.6L177.2,768.6z M177.2,790.8C176.9,790.8,177.2,790.5,177.2,790.8L177.2,790.8z M177.2,811.7
	C177.2,812,176.9,811.7,177.2,811.7L177.2,811.7z M177.2,833.8C176.9,833.8,177.2,833.6,177.2,833.8L177.2,833.8z M177.2,854.8
	C177.2,855.1,176.9,854.8,177.2,854.8L177.2,854.8z M164.8,812.3C164.8,812,165.1,812.3,164.8,812.3L164.8,812.3z M164.8,833.3
	C165.1,833.3,164.8,833.6,164.8,833.3L164.8,833.3z M164.8,790.2C165.1,790.2,164.8,790.5,164.8,790.2L164.8,790.2z M164.8,769.2
	C164.8,768.9,165.1,769.2,164.8,769.2L164.8,769.2z M164.8,747.1C165.1,747.1,164.8,747.4,164.8,747.1L164.8,747.1z M164.8,726.1
	C164.8,725.8,165.1,726.1,164.8,726.1L164.8,726.1z M164.8,704.1C165.1,704.1,164.8,704.4,164.8,704.1L164.8,704.1z M164.8,855.4
	C164.8,855.1,165.1,855.4,164.8,855.4L164.8,855.4z M164.8,683.1C164.8,682.8,165.1,683.1,164.8,683.1L164.8,683.1z M164.7,660.9
	C165,660.9,164.7,661.2,164.7,660.9L164.7,660.9z M198.2,889.4C198.2,889.1,198.5,889.4,198.2,889.4L198.2,889.4z M198.2,626.9
	C198.5,626.9,198.2,627.2,198.2,626.9L198.2,626.9z M225.7,831.3c-2.2,0-3.9-1.7-3.9-3.9c0-2.1,1.7-3.9,3.9-3.9s3.9,1.8,3.9,3.9
	C229.6,829.6,227.8,831.3,225.7,831.3z M225.9,692.4c-2.2,0-3.9-1.7-3.9-3.9s1.7-3.9,3.9-3.9c2.1,0,3.9,1.8,3.9,3.9
	C229.8,690.7,228,692.4,225.9,692.4z M390.3,831.3c-2.2,0-3.9-1.7-3.9-3.9c0-2.1,1.7-3.9,3.9-3.9c2.1,0,3.9,1.8,3.9,3.9
	C394.2,829.6,392.4,831.3,390.3,831.3z M390.4,692.5c-2.2,0-3.9-1.7-3.9-3.9c0-2.1,1.7-3.9,3.9-3.9c2.2,0,3.9,1.8,3.9,3.9
	C394.3,690.8,392.5,692.5,390.4,692.5z"/>
<path class="st3" d="M920.3,1505C920.3,1504.7,920.6,1505,920.3,1505L920.3,1505z"/>
<path class="st3" d="M932.7,1504.4C932.7,1504.7,932.4,1504.4,932.7,1504.4L932.7,1504.4z"/>
<g id="p-5">
	<text transform="matrix(1 0 0 1 76.1825 166.4294)" class="st0 st1 st2">Top</text>
	<path class="st3" d="M11.1,293.3h41.7c0.3,0,0-0.3,0,0v10.5c0,0.2,0.1,0.3,0.3,0.3h21.5c0.2,0,0.3-0.1,0.3-0.3v-10.5
		c0-0.3-0.3,0,0,0h21c0.3,0,0-0.3,0,0v10.5c0,0.2,0.1,0.3,0.3,0.3h21.5c0.2,0,0.3-0.1,0.3-0.3v-10.5c0-0.3-0.3,0,0,0h41.7
		c0.2,0,0.3-0.1,0.3-0.3v-33.7c0-0.3-0.3,0,0,0h10.5c0.2,0,0.3-0.1,0.3-0.3v-21.5c0-0.2-0.1-0.3-0.3-0.3H160c-0.3,0,0,0.3,0,0v-21
		c0-0.3-0.3,0,0,0h10.5c0.2,0,0.3-0.1,0.3-0.3v-21.5c0-0.2-0.1-0.3-0.3-0.3H160c-0.3,0,0,0.3,0,0v-21c0-0.3-0.3,0,0,0h10.5
		c0.2,0,0.3-0.1,0.3-0.3v-21.5c0-0.2-0.1-0.3-0.3-0.3H160c-0.3,0,0,0.3,0,0v-21c0-0.3-0.3,0,0,0h10.5c0.2,0,0.3-0.1,0.3-0.3v-21.5
		c0-0.2-0.1-0.3-0.3-0.3H160c-0.3,0,0,0.3,0,0V87c0-0.3-0.3,0,0,0h10.5c0.2,0,0.3-0.1,0.3-0.3V65.1c0-0.2-0.1-0.3-0.3-0.3H160
		c-0.3,0,0,0.3,0,0V31.1c0-0.2-0.1-0.3-0.3-0.3H118c-0.3,0,0,0.3,0,0V20.4c0-0.2-0.1-0.3-0.3-0.3H96.1c-0.2,0-0.3,0.1-0.3,0.3v10.5
		c0,0.3,0.3,0,0,0h-21c-0.3,0,0,0.3,0,0V20.4c0-0.2-0.1-0.3-0.3-0.3H53c-0.2,0-0.3,0.1-0.3,0.3v10.5c0,0.3,0.3,0,0,0H11.1
		c-0.2,0-0.3,0.1-0.3,0.3v33.7c0,0.3,0.3,0,0,0H0.3C0.1,64.9,0,65,0,65.1v21.5C0,86.8,0.1,87,0.3,87h10.5c0.3,0,0-0.3,0,0v21
		c0,0.3,0.3,0,0,0H0.3c-0.2,0-0.3,0.1-0.3,0.3v21.5c0,0.2,0.1,0.3,0.3,0.3h10.5c0.3,0,0-0.3,0,0v21c0,0.3,0.3,0,0,0H0.3
		c-0.2,0-0.3,0.1-0.3,0.3v21.5c0,0.2,0.1,0.3,0.3,0.3h10.5c0.3,0,0-0.3,0,0v21c0,0.3,0.3,0,0,0H0.3c-0.2,0-0.3,0.1-0.3,0.3V216
		c0,0.2,0.1,0.3,0.3,0.3h10.5c0.3,0,0-0.3,0,0v21c0,0.3,0.3,0,0,0H0.3c-0.2,0-0.3,0.1-0.3,0.3V259c0,0.2,0.1,0.3,0.3,0.3h10.5
		c0.3,0,0-0.3,0,0V293C10.8,293.2,10.9,293.3,11.1,293.3"/>
</g>
<g id="p-6">
	<text transform="matrix(1 0 0 1 538.5787 166.4294)" class="st0 st1 st2">Bottom</text>
	<path class="st3" d="M482.3,293.3H524c0.3,0,0-0.3,0,0v10.5c0,0.2,0.1,0.3,0.3,0.3h21.5c0.2,0,0.3-0.1,0.3-0.3v-10.5
		c0-0.3-0.3,0,0,0h21c0.3,0,0-0.3,0,0v10.5c0,0.2,0.1,0.3,0.3,0.3h21.5c0.2,0,0.3-0.1,0.3-0.3v-10.5c0-0.3-0.3,0,0,0h41.7
		c0.2,0,0.3-0.1,0.3-0.3v-33.7c0-0.3-0.3,0,0,0h10.5c0.2,0,0.3-0.1,0.3-0.3v-21.5c0-0.2-0.1-0.3-0.3-0.3h-10.5c-0.3,0,0,0.3,0,0v-21
		c0-0.3-0.3,0,0,0h10.5c0.2,0,0.3-0.1,0.3-0.3v-21.5c0-0.2-0.1-0.3-0.3-0.3h-10.5c-0.3,0,0,0.3,0,0v-21c0-0.3-0.3,0,0,0h10.5
		c0.2,0,0.3-0.1,0.3-0.3v-21.5c0-0.2-0.1-0.3-0.3-0.3h-10.5c-0.3,0,0,0.3,0,0v-21c0-0.3-0.3,0,0,0h10.5c0.2,0,0.3-0.1,0.3-0.3v-21.5
		c0-0.2-0.1-0.3-0.3-0.3h-10.5c-0.3,0,0,0.3,0,0V87c0-0.3-0.3,0,0,0h10.5c0.2,0,0.3-0.1,0.3-0.3V65.1c0-0.2-0.1-0.3-0.3-0.3h-10.5
		c-0.3,0,0,0.3,0,0V31.1c0-0.2-0.1-0.3-0.3-0.3h-41.7c-0.3,0,0,0.3,0,0V20.4c0-0.2-0.1-0.3-0.3-0.3h-21.5c-0.2,0-0.3,0.1-0.3,0.3
		v10.5c0,0.3,0.3,0,0,0h-21c-0.3,0,0,0.3,0,0V20.4c0-0.2-0.1-0.3-0.3-0.3h-21.5c-0.2,0-0.3,0.1-0.3,0.3v10.5c0,0.3,0.3,0,0,0h-41.7
		c-0.2,0-0.3,0.1-0.3,0.3v33.7c0,0.3,0.3,0,0,0h-10.5c-0.2,0-0.3,0.1-0.3,0.3v21.5c0,0.2,0.1,0.3,0.3,0.3H482c0.3,0,0-0.3,0,0v21
		c0,0.3,0.3,0,0,0h-10.5c-0.2,0-0.3,0.1-0.3,0.3v21.5c0,0.2,0.1,0.3,0.3,0.3H482c0.3,0,0-0.3,0,0v21c0,0.3,0.3,0,0,0h-10.5
		c-0.2,0-0.3,0.1-0.3,0.3v21.5c0,0.2,0.1,0.3,0.3,0.3H482c0.3,0,0-0.3,0,0v21c0,0.3,0.3,0,0,0h-10.5c-0.2,0-0.3,0.1-0.3,0.3V216
		c0,0.2,0.1,0.3,0.3,0.3H482c0.3,0,0-0.3,0,0v21c0,0.3,0.3,0,0,0h-10.5c-0.2,0-0.3,0.1-0.3,0.3V259c0,0.2,0.1,0.3,0.3,0.3H482
		c0.3,0,0-0.3,0,0V293C482,293.2,482.1,293.3,482.3,293.3"/>
</g>
<g id="p-3">
	<text transform="matrix(1 0 0 1 301.3982 166.4281)" class="st0 st1 st2">Wall 4</text>
	<path class="st3" d="M186,304.1h34c0.2,0,0.3-0.1,0.3-0.3v-10.5c0-0.3-0.3,0,0,0h21c0.3,0,0-0.3,0,0v10.5c0,0.2,0.1,0.3,0.3,0.3
		h21.5c0.2,0,0.3-0.1,0.3-0.3v-10.5c0-0.3-0.3,0,0,0h21c0.3,0,0-0.3,0,0v10.5c0,0.2,0.1,0.3,0.3,0.3h21.5c0.2,0,0.3-0.1,0.3-0.3
		v-10.5c0-0.3-0.3,0,0,0h21c0.3,0,0-0.3,0,0v10.5c0,0.2,0.1,0.3,0.3,0.3h21.5c0.2,0,0.3-0.1,0.3-0.3v-10.5c0-0.3-0.3,0,0,0h21
		c0.3,0,0-0.3,0,0v10.5c0,0.2,0.1,0.3,0.3,0.3h21.5c0.2,0,0.3-0.1,0.3-0.3v-10.5c0-0.3-0.3,0,0,0h21c0.3,0,0-0.3,0,0v10.5
		c0,0.2,0.1,0.3,0.3,0.3h34c0.2,0,0.3-0.1,0.3-0.3V293v-33.7c0-0.3-0.3,0,0,0h10.5c0.2,0,0.3-0.1,0.3-0.3v-21.5
		c0-0.2-0.1-0.3-0.3-0.3h-10.5c-0.3,0,0,0.3,0,0v-21c0-0.3-0.3,0,0,0h10.5c0.2,0,0.3-0.1,0.3-0.3v-21.5c0-0.2-0.1-0.3-0.3-0.3h-10.5
		c-0.3,0,0,0.3,0,0v-21c0-0.3-0.3,0,0,0h10.5c0.2,0,0.3-0.1,0.3-0.3v-21.5c0-0.2-0.1-0.3-0.3-0.3h-10.5c-0.3,0,0,0.3,0,0v-21
		c0-0.3-0.3,0,0,0h10.5c0.2,0,0.3-0.1,0.3-0.3v-21.5c0-0.2-0.1-0.3-0.3-0.3h-10.5c-0.3,0,0,0.3,0,0V87c0-0.3-0.3,0,0,0h10.5
		c0.2,0,0.3-0.1,0.3-0.3V65.1c0-0.2-0.1-0.3-0.3-0.3h-10.5c-0.3,0,0,0.3,0,0V31.1V20.4c0-0.2-0.1-0.3-0.3-0.3h-34
		c-0.2,0-0.3,0.1-0.3,0.3v10.5c0,0.3,0.3,0,0,0h-21c-0.3,0,0,0.3,0,0V20.4c0-0.2-0.1-0.3-0.3-0.3h-21.5c-0.2,0-0.3,0.1-0.3,0.3v10.5
		c0,0.3,0.3,0,0,0h-21c-0.3,0,0,0.3,0,0V20.4c0-0.2-0.1-0.3-0.3-0.3h-21.5c-0.2,0-0.3,0.1-0.3,0.3v10.5c0,0.3,0.3,0,0,0h-21
		c-0.3,0,0,0.3,0,0V20.4c0-0.2-0.1-0.3-0.3-0.3h-21.5c-0.2,0-0.3,0.1-0.3,0.3v10.5c0,0.3,0.3,0,0,0h-21c-0.3,0,0,0.3,0,0V20.4
		c0-0.2-0.1-0.3-0.3-0.3h-21.5c-0.2,0-0.3,0.1-0.3,0.3v10.5c0,0.3,0.3,0,0,0h-21c-0.3,0,0,0.3,0,0V20.4c0-0.2-0.1-0.3-0.3-0.3h-34
		c-0.2,0-0.3,0.1-0.3,0.3v10.8v33.7c0,0.3,0.3,0,0,0h-10.5c-0.2,0-0.3,0.1-0.3,0.3v21.5c0,0.2,0.1,0.3,0.3,0.3h10.5c0.3,0,0-0.3,0,0
		v21c0,0.3,0.3,0,0,0h-10.5c-0.2,0-0.3,0.1-0.3,0.3v21.5c0,0.2,0.1,0.3,0.3,0.3h10.5c0.3,0,0-0.3,0,0v21c0,0.3,0.3,0,0,0h-10.5
		c-0.2,0-0.3,0.1-0.3,0.3v21.5c0,0.2,0.1,0.3,0.3,0.3h10.5c0.3,0,0-0.3,0,0v21c0,0.3,0.3,0,0,0h-10.5c-0.2,0-0.3,0.1-0.3,0.3V216
		c0,0.2,0.1,0.3,0.3,0.3h10.5c0.3,0,0-0.3,0,0v21c0,0.3,0.3,0,0,0h-10.5c-0.2,0-0.3,0.1-0.3,0.3V259c0,0.2,0.1,0.3,0.3,0.3h10.5
		c0.3,0,0-0.3,0,0V293v10.8C185.7,304,185.8,304.1,186,304.1"/>
</g>
<g>
	<path d="M574.6,580.5l-3.9-12.1h3l1.5,5.1c0.4,1.4,0.8,2.8,1.1,4.3h0.1c0.3-1.5,0.7-2.9,1.1-4.3l1.5-5.2h2.9l-4.1,12.1h-3.2V580.5z
		"/>
	<path d="M590.4,575.4h-4.5v2.9h5v2.3h-7.7v-12.1h7.5v2.3H586v2.5h4.5L590.4,575.4L590.4,575.4z"/>
	<path d="M592.8,568.5c0.9-0.1,2.2-0.3,3.7-0.3c1.8,0,3.1,0.3,3.9,1c0.7,0.6,1.1,1.4,1.1,2.5c0,1.5-1.1,2.6-2.1,3v0.1
		c0.8,0.3,1.3,1.2,1.6,2.3c0.4,1.4,0.8,3,1,3.4h-2.8c-0.2-0.3-0.5-1.3-0.8-2.8s-0.8-1.9-2-1.9h-0.8v4.8h-2.7v-12.1H592.8z
		 M595.5,573.8h1.1c1.4,0,2.2-0.7,2.2-1.7c0-1.1-0.8-1.7-2-1.7c-0.7,0-1,0.1-1.2,0.1L595.5,573.8L595.5,573.8z"/>
	<path d="M603.6,577.7c0.7,0.4,1.9,0.8,3,0.8c1.3,0,1.9-0.5,1.9-1.3s-0.6-1.2-2-1.7c-2-0.7-3.3-1.8-3.3-3.6c0-2.1,1.7-3.7,4.6-3.7
		c1.4,0,2.4,0.3,3.1,0.6l-0.6,2.2c-0.5-0.2-1.3-0.6-2.5-0.6s-1.8,0.5-1.8,1.2c0,0.8,0.7,1.1,2.2,1.7c2.1,0.8,3.2,1.9,3.2,3.6
		c0,2-1.6,3.8-4.9,3.8c-1.4,0-2.8-0.4-3.4-0.7L603.6,577.7z"/>
	<path d="M615.9,568.4v12.1h-2.8v-12.1H615.9z"/>
	<path d="M629.4,574.3c0,4-2.4,6.4-6,6.4s-5.7-2.7-5.7-6.2c0-3.6,2.3-6.4,5.9-6.4C627.4,568.2,629.4,571,629.4,574.3z M620.7,574.5
		c0,2.4,1.1,4.1,3,4.1s2.9-1.8,2.9-4.1c0-2.2-1-4.1-2.9-4.1C621.7,570.3,620.7,572.1,620.7,574.5z"/>
	<path d="M631.2,580.5v-12.1h3.2l2.5,4.4c0.7,1.3,1.4,2.8,2,4.2h0.1c-0.2-1.6-0.2-3.2-0.2-5.1v-3.5h2.5v12.1h-2.9l-2.6-4.7
		c-0.7-1.3-1.5-2.9-2.1-4.3h-0.1c0.1,1.6,0.1,3.3,0.1,5.3v3.7L631.2,580.5L631.2,580.5z"/>
	<path d="M647.3,577.8c0.5,0.3,1.6,0.7,2.7,0.7c1.4,0,2.1-0.7,2.1-1.6c0-1.2-1.2-1.7-2.4-1.7h-1.1v-2h1.1c0.9,0,2.1-0.4,2.1-1.4
		c0-0.7-0.6-1.2-1.7-1.2c-1,0-2,0.4-2.4,0.7l-0.6-2c0.7-0.5,2.1-0.9,3.6-0.9c2.5,0,3.9,1.3,3.9,2.9c0,1.2-0.7,2.2-2.1,2.7l0,0
		c1.4,0.3,2.5,1.3,2.5,2.8c0,2.1-1.8,3.6-4.8,3.6c-1.5,0-2.8-0.4-3.5-0.8L647.3,577.8z"/>
</g>
<g>
	<path d="M481.9,710l12.1-3.9v3l-5.1,1.5c-1.4,0.4-2.8,0.8-4.3,1.1v0.1c1.5,0.3,2.9,0.7,4.3,1.1l5.2,1.5v2.9l-12.1-4.1V710H481.9z"
		/>
	<path d="M487,725.8v-4.5h-2.9v5h-2.3v-7.7H494v7.5h-2.3v-4.7h-2.5v4.5L487,725.8L487,725.8z"/>
	<path d="M493.9,728.2c0.1,0.9,0.3,2.2,0.3,3.7c0,1.8-0.3,3.1-1,3.9c-0.6,0.7-1.4,1.1-2.5,1.1c-1.5,0-2.6-1.1-3-2.1h-0.1
		c-0.3,0.8-1.2,1.3-2.3,1.6c-1.4,0.4-3,0.8-3.4,1v-2.8c0.3-0.2,1.3-0.5,2.8-0.8s1.9-0.8,1.9-2V731h-4.8v-2.7h12.1V728.2z
		 M488.7,730.9v1.1c0,1.4,0.7,2.2,1.7,2.2c1.1,0,1.7-0.8,1.7-2c0-0.7-0.1-1-0.1-1.2L488.7,730.9L488.7,730.9z"/>
	<path d="M484.7,738.9c-0.4,0.7-0.8,1.9-0.8,3c0,1.3,0.5,1.9,1.3,1.9s1.2-0.6,1.7-2c0.7-2,1.8-3.3,3.6-3.3c2.1,0,3.7,1.7,3.7,4.6
		c0,1.4-0.3,2.4-0.6,3.1l-2.2-0.6c0.2-0.5,0.6-1.3,0.6-2.5s-0.5-1.8-1.2-1.8c-0.8,0-1.1,0.7-1.7,2.2c-0.8,2.1-1.9,3.2-3.6,3.2
		c-2,0-3.8-1.6-3.8-4.9c0-1.4,0.4-2.8,0.7-3.4L484.7,738.9z"/>
	<path d="M494,751.3h-12.1v-2.8H494V751.3z"/>
	<path d="M488.1,764.8c-4,0-6.4-2.4-6.4-6s2.7-5.7,6.2-5.7c3.6,0,6.4,2.3,6.4,5.9C494.2,762.7,491.4,764.8,488.1,764.8z M487.9,756
		c-2.4,0-4.1,1.1-4.1,3s1.8,2.9,4.1,2.9c2.2,0,4.1-1,4.1-2.9C492.1,757.1,490.3,756,487.9,756z"/>
	<path d="M481.9,766.6H494v3.2l-4.4,2.5c-1.3,0.7-2.8,1.4-4.2,2v0.1c1.6-0.2,3.2-0.2,5.1-0.2h3.5v2.5h-12.1v-2.9l4.7-2.6
		c1.3-0.7,2.9-1.5,4.3-2.1V769c-1.6,0.1-3.3,0.1-5.3,0.1h-3.7V766.6z"/>
	<path d="M484.6,782.7c-0.3,0.5-0.7,1.6-0.7,2.7c0,1.4,0.7,2.1,1.6,2.1c1.2,0,1.7-1.2,1.7-2.4V784h2v1.1c0,0.9,0.4,2.1,1.4,2.1
		c0.7,0,1.2-0.6,1.2-1.7c0-1-0.4-2-0.7-2.4l2-0.6c0.5,0.7,0.9,2.1,0.9,3.6c0,2.5-1.3,3.9-2.9,3.9c-1.2,0-2.2-0.7-2.7-2.1l0,0
		c-0.3,1.4-1.3,2.5-2.8,2.5c-2.1,0-3.6-1.8-3.6-4.8c0-1.5,0.4-2.8,0.8-3.5L484.6,782.7z"/>
</g>
<g id="p-4_00000057124502388291680140000006515410726275947433_">
	<path class="st3" d="M1811.4,272.9h10.5c0.2,0,0.3-0.1,0.3-0.3v-21.5c0-0.2-0.1-0.3-0.3-0.3h-10.5c0,0.3-0.3,0,0,0v-33.7
		c0-0.2-0.1-0.3-0.3-0.3h-33.2c0,0.3-0.3,0,0,0v-10.5c0-0.2-0.1-0.3-0.3-0.3h-21.5c-0.2,0-0.3,0.1-0.3,0.3v10.5c0.3,0,0,0.3,0,0h-21
		c0,0.3-0.3,0,0,0v-10.5c0-0.2-0.1-0.3-0.3-0.3H1713c-0.2,0-0.3,0.1-0.3,0.3v10.5c0.3,0,0,0.3,0,0h-21c0,0.3-0.3,0,0,0v-10.5
		c0-0.2-0.1-0.3-0.3-0.3h-21.5c-0.2,0-0.3,0.1-0.3,0.3v10.5c0.3,0,0,0.3,0,0h-21c0,0.3-0.3,0,0,0v-10.5c0-0.2-0.1-0.3-0.3-0.3h-21.5
		c-0.2,0-0.3,0.1-0.3,0.3v10.5c0.3,0,0,0.3,0,0h-21c0,0.3-0.3,0,0,0v-10.5c0-0.2-0.1-0.3-0.3-0.3h-21.5c-0.2,0-0.3,0.1-0.3,0.3v10.5
		c0.3,0,0,0.3,0,0h-21c0,0.3-0.3,0,0,0v-10.5c0-0.2-0.1-0.3-0.3-0.3h-21.5c-0.2,0-0.3,0.1-0.3,0.3v10.5c0.3,0,0,0.3,0,0h-21
		c0,0.3-0.3,0,0,0v-10.5c0-0.2-0.1-0.3-0.3-0.3h-21.4c-0.1,0-0.1,0-0.1,0h-68.3v0h-28.7c-0.2,0-0.3,0.1-0.3,0.3v10.5
		c0.3,0,0,0.3,0,0h-21c0,0.3-0.3,0,0,0v-10.5c0-0.2-0.1-0.3-0.3-0.3h-21.5c-0.2,0-0.3,0.1-0.3,0.3v10.5c0.3,0,0,0.3,0,0h-21
		c0,0.3-0.3,0,0,0v-10.5c0-0.2-0.1-0.3-0.3-0.3H1283c-0.2,0-0.3,0.1-0.3,0.3v44.8c0,0.2,0.1,0.3,0.3,0.3h10.5c0-0.3,0.3,0,0,0v21
		c0.3,0,0,0.3,0,0H1283c-0.2,0-0.3,0.1-0.3,0.3v21.5c0,0.2,0.1,0.3,0.3,0.3h10.5c0-0.3,0.3,0,0,0v21c0.3,0,0,0.3,0,0H1283
		c-0.2,0-0.3,0.1-0.3,0.3v21.5c0,0.2,0.1,0.3,0.3,0.3h10.5c0-0.3,0.3,0,0,0v21c0.3,0,0,0.3,0,0H1283c-0.2,0-0.3,0.1-0.3,0.3v21.5
		c0,0.2,0.1,0.3,0.3,0.3h10.5c0-0.3,0.3,0,0,0v21c0.3,0,0,0.3,0,0H1283c-0.2,0-0.3,0.1-0.3,0.3v21.5c0,0.2,0.1,0.3,0.3,0.3h10.5
		c0-0.3,0.3,0,0,0v21c0.3,0,0,0.3,0,0H1283c-0.2,0-0.3,0.1-0.3,0.3v44.8c0,0.2,0.1,0.3,0.3,0.3h52.7c0.2,0,0.3-0.1,0.3-0.3v-10.5
		c-0.3,0,0-0.3,0,0h21c0-0.3,0.3,0,0,0v10.5c0,0.2,0.1,0.3,0.3,0.3h21.5c0.2,0,0.3-0.1,0.3-0.3v-10.5c-0.3,0,0-0.3,0,0h21
		c0-0.3,0.3,0,0,0v10.5c0,0.2,0.1,0.3,0.3,0.3h97.1c0,0,0,0,0.1,0h21.5c0.2,0,0.3-0.1,0.3-0.3v-10.5c-0.3,0,0-0.3,0,0h21
		c0-0.3,0.3,0,0,0v10.5c0,0.2,0.1,0.3,0.3,0.3h21.5c0.2,0,0.3-0.1,0.3-0.3v-10.5c-0.3,0,0-0.3,0,0h21c0-0.3,0.3,0,0,0v10.5
		c0,0.2,0.1,0.3,0.3,0.3h21.5c0.2,0,0.3-0.1,0.3-0.3v-10.5c-0.3,0,0-0.3,0,0h21c0-0.3,0.3,0,0,0v10.5c0,0.2,0.1,0.3,0.3,0.3h21.5
		c0.2,0,0.3-0.1,0.3-0.3v-10.5c-0.3,0,0-0.3,0,0h21c0-0.3,0.3,0,0,0v10.5c0,0.2,0.1,0.3,0.3,0.3h21.5c0.2,0,0.3-0.1,0.3-0.3v-10.5
		c-0.3,0,0-0.3,0,0h21c0-0.3,0.3,0,0,0v10.5c0,0.2,0.1,0.3,0.3,0.3h21.5c0.2,0,0.3-0.1,0.3-0.3v-10.5c-0.3,0,0-0.3,0,0h21
		c0-0.3,0.3,0,0,0v10.5c0,0.2,0.1,0.3,0.3,0.3h21.5c0.2,0,0.3-0.1,0.3-0.3v-10.5c-0.3,0,0-0.3,0,0h33.1c0.2,0,0.3-0.1,0.3-0.3v-33.7
		c-0.3,0,0-0.3,0,0h10.5c0.2,0,0.3-0.1,0.3-0.3v-21.5c0-0.2-0.1-0.3-0.3-0.3h-10.5c0,0.3-0.3,0,0,0v-21c-0.3,0,0-0.3,0,0h10.5
		c0.2,0,0.3-0.1,0.3-0.3v-21.5c0-0.2-0.1-0.3-0.3-0.3h-10.5c0,0.3-0.3,0,0,0v-21c-0.3,0,0-0.3,0,0h10.5c0.2,0,0.3-0.1,0.3-0.3v-21.5
		c0-0.2-0.1-0.3-0.3-0.3h-10.5c0,0.3-0.3,0,0,0v-21c-0.3,0,0-0.3,0,0h10.5c0.2,0,0.3-0.1,0.3-0.3v-21.5c0-0.2-0.1-0.3-0.3-0.3h-10.5
		c0,0.3-0.3,0,0,0V272.9C1811.1,272.9,1811.4,272.6,1811.4,272.9z M1497.3,216.8C1497.6,216.8,1497.3,217.1,1497.3,216.8
		L1497.3,216.8z M1497.3,479.3C1497.3,479,1497.6,479.3,1497.3,479.3L1497.3,479.3z M1453.4,250.8v0.3c0,0.2-0.1,0.3-0.3,0.3h0v-0.3
		C1453.1,250.9,1453.2,250.8,1453.4,250.8L1453.4,250.8z M1453.4,380.4c0,0.2-0.1,0.3-0.3,0.3h0v-0.3c0-0.2,0.1-0.3,0.3-0.3h0V380.4
		z M1453.4,359.1c-0.2,0-0.3-0.1-0.3-0.3v-0.2h0c0.2,0,0.3,0.1,0.3,0.3L1453.4,359.1L1453.4,359.1z M1453.4,337.3
		c0,0.2-0.1,0.3-0.3,0.3h0v-0.3c0-0.2,0.1-0.3,0.3-0.3h0V337.3z M1453.4,316c-0.2,0-0.3-0.1-0.3-0.3v-0.2h0c0.2,0,0.3,0.1,0.3,0.3
		L1453.4,316L1453.4,316z M1453.4,294.2c0,0.2-0.1,0.3-0.3,0.3h0v-0.2c0-0.2,0.1-0.3,0.3-0.3h0V294.2z M1442.6,272.4
		C1442.6,272.7,1442.3,272.4,1442.6,272.4L1442.6,272.4z M1442.6,251.4C1442.3,251.4,1442.6,251.1,1442.6,251.4L1442.6,251.4z
		 M1442.6,294.5C1442.3,294.5,1442.6,294.2,1442.6,294.5L1442.6,294.5z M1442.6,315.5C1442.6,315.8,1442.3,315.5,1442.6,315.5
		L1442.6,315.5z M1442.6,337.6C1442.3,337.6,1442.6,337.3,1442.6,337.6L1442.6,337.6z M1442.6,358.6
		C1442.6,358.8,1442.3,358.6,1442.6,358.6L1442.6,358.6z M1442.6,380.7C1442.3,380.7,1442.6,380.4,1442.6,380.7L1442.6,380.7z
		 M1442.6,401.6C1442.6,401.9,1442.3,401.6,1442.6,401.6L1442.6,401.6z M1453.1,401.6L1453.1,401.6c0.2,0,0.3,0.1,0.3,0.3v0.3h0
		c-0.2,0-0.3-0.1-0.3-0.3V401.6z M1463.9,402.2C1463.9,401.9,1464.2,402.2,1463.9,402.2L1463.9,402.2z M1463.9,423.2
		C1464.2,423.2,1463.9,423.5,1463.9,423.2L1463.9,423.2z M1463.9,380.1C1464.2,380.1,1463.9,380.4,1463.9,380.1L1463.9,380.1z
		 M1463.9,359.1C1463.9,358.8,1464.2,359.1,1463.9,359.1L1463.9,359.1z M1463.9,337C1464.2,337,1463.9,337.3,1463.9,337L1463.9,337z
		 M1463.9,316C1463.9,315.7,1464.2,316,1463.9,316L1463.9,316z M1463.9,294C1464.2,294,1463.9,294.3,1463.9,294L1463.9,294z
		 M1453.4,273c-0.2,0-0.3-0.1-0.3-0.3v-0.3h0c0.2,0,0.3,0.1,0.3,0.3L1453.4,273L1453.4,273z M1442.6,423.8
		C1442.3,423.8,1442.6,423.5,1442.6,423.8L1442.6,423.8z M1453.1,423.5c0-0.2,0.1-0.3,0.3-0.3h0v0.3c0,0.2-0.1,0.3-0.3,0.3h0V423.5z
		 M1463.9,445.3C1463.9,445,1464.2,445.3,1463.9,445.3L1463.9,445.3z M1463.9,273C1463.9,272.7,1464.2,273,1463.9,273L1463.9,273z
		 M1463.8,250.8C1464.1,250.8,1463.8,251.1,1463.8,250.8L1463.8,250.8z M1442.6,444.7C1442.6,445,1442.3,444.7,1442.6,444.7
		L1442.6,444.7z M1453.4,445.3c-0.2,0-0.3-0.1-0.3-0.3v-0.3h0c0.2,0,0.3,0.1,0.3,0.3L1453.4,445.3L1453.4,445.3z M1524.8,421.2
		c-2.2,0-3.9-1.7-3.9-3.9c0-2.1,1.8-3.9,3.9-3.9c2.2,0,3.9,1.8,3.9,3.9C1528.7,419.5,1526.9,421.2,1524.8,421.2z M1525,282.3
		c-2.1,0-3.9-1.7-3.9-3.9c0-2.2,1.8-3.9,3.9-3.9c2.2,0,3.9,1.8,3.9,3.9C1528.9,280.6,1527.1,282.3,1525,282.3z M1689.4,421.2
		c-2.2,0-3.9-1.7-3.9-3.9c0-2.1,1.8-3.9,3.9-3.9c2.2,0,3.9,1.8,3.9,3.9C1693.3,419.5,1691.5,421.2,1689.4,421.2z M1689.5,282.4
		c-2.1,0-3.9-1.7-3.9-3.9c0-2.2,1.8-3.9,3.9-3.9c2.2,0,3.9,1.8,3.9,3.9C1693.4,280.7,1691.6,282.4,1689.5,282.4z"/>
</g>
<path class="st7" d="M1442.6,444.7C1442.6,445,1442.3,444.7,1442.6,444.7L1442.6,444.7z"/>
<path class="st7" d="M1442.6,423.8C1442.3,423.8,1442.6,423.5,1442.6,423.8L1442.6,423.8z"/>
<path class="st7" d="M1442.6,401.6C1442.6,401.9,1442.3,401.6,1442.6,401.6L1442.6,401.6z"/>
<path class="st7" d="M1442.6,380.7C1442.3,380.7,1442.6,380.4,1442.6,380.7L1442.6,380.7z"/>
<path class="st7" d="M1442.6,358.6C1442.6,358.8,1442.3,358.6,1442.6,358.6L1442.6,358.6z"/>
<path class="st7" d="M1442.6,337.6C1442.3,337.6,1442.6,337.3,1442.6,337.6L1442.6,337.6z"/>
<path class="st7" d="M1442.6,315.5C1442.6,315.8,1442.3,315.5,1442.6,315.5L1442.6,315.5z"/>
<path class="st7" d="M1442.6,294.5C1442.3,294.5,1442.6,294.2,1442.6,294.5L1442.6,294.5z"/>
<path class="st7" d="M1442.6,272.4C1442.6,272.7,1442.3,272.4,1442.6,272.4L1442.6,272.4z"/>
<path class="st7" d="M1442.6,251.4C1442.3,251.4,1442.6,251.1,1442.6,251.4L1442.6,251.4z"/>
<path class="st7" d="M1453.4,250.8L1453.4,250.8l0,0.3c0,0.2-0.1,0.3-0.3,0.3h0v-0.3C1453.1,250.9,1453.2,250.8,1453.4,250.8z"/>
<path class="st7" d="M1453.4,272.7v0.3h0c-0.2,0-0.3-0.1-0.3-0.3v-0.3h0C1453.3,272.4,1453.4,272.5,1453.4,272.7z"/>
<path class="st7" d="M1453.4,294L1453.4,294l0,0.2c0,0.2-0.1,0.3-0.3,0.3h0v-0.2C1453.1,294.1,1453.2,294,1453.4,294z"/>
<path class="st7" d="M1453.4,315.8v0.2h0c-0.2,0-0.3-0.1-0.3-0.3v-0.2h0C1453.3,315.5,1453.4,315.6,1453.4,315.8z"/>
<path class="st7" d="M1453.4,337L1453.4,337l0,0.3c0,0.2-0.1,0.3-0.3,0.3h0v-0.3C1453.1,337.1,1453.2,337,1453.4,337z"/>
<path class="st7" d="M1453.4,358.8v0.3h0c-0.2,0-0.3-0.1-0.3-0.3v-0.2h0C1453.3,358.6,1453.4,358.7,1453.4,358.8z"/>
<path class="st7" d="M1453.4,380.1L1453.4,380.1l0,0.3c0,0.2-0.1,0.3-0.3,0.3h0v-0.3C1453.1,380.2,1453.2,380.1,1453.4,380.1z"/>
<path class="st7" d="M1453.4,401.9v0.3h0c-0.2,0-0.3-0.1-0.3-0.3v-0.3h0C1453.3,401.6,1453.4,401.8,1453.4,401.9z"/>
<path class="st7" d="M1453.4,423.2L1453.4,423.2l0,0.3c0,0.2-0.1,0.3-0.3,0.3h0v-0.2C1453.1,423.3,1453.2,423.2,1453.4,423.2z"/>
<path class="st7" d="M1453.4,445v0.3h0c-0.2,0-0.3-0.1-0.3-0.3v-0.3h0C1453.3,444.7,1453.4,444.9,1453.4,445z"/>
<path class="st7" d="M1463.8,250.8C1464.1,250.8,1463.8,251.1,1463.8,250.8L1463.8,250.8z"/>
<path class="st7" d="M1463.9,445.3C1463.9,445,1464.2,445.3,1463.9,445.3L1463.9,445.3z"/>
<path class="st7" d="M1463.9,423.2C1464.2,423.2,1463.9,423.5,1463.9,423.2L1463.9,423.2z"/>
<path class="st7" d="M1463.9,402.2C1463.9,401.9,1464.2,402.2,1463.9,402.2L1463.9,402.2z"/>
<path class="st7" d="M1463.9,380.1C1464.2,380.1,1463.9,380.4,1463.9,380.1L1463.9,380.1z"/>
<path class="st7" d="M1463.9,359.1C1463.9,358.8,1464.2,359.1,1463.9,359.1L1463.9,359.1z"/>
<path class="st7" d="M1463.9,337C1464.2,337,1463.9,337.3,1463.9,337L1463.9,337z"/>
<path class="st7" d="M1463.9,316C1463.9,315.7,1464.2,316,1463.9,316L1463.9,316z"/>
<path class="st7" d="M1463.9,294C1464.2,294,1463.9,294.3,1463.9,294L1463.9,294z"/>
<path class="st7" d="M1463.9,273C1463.9,272.7,1464.2,273,1463.9,273L1463.9,273z"/>
<path class="st7" d="M1497.3,479.3C1497.3,479,1497.6,479.3,1497.3,479.3L1497.3,479.3z"/>
<path class="st7" d="M1497.3,216.8C1497.6,216.8,1497.3,217.1,1497.3,216.8L1497.3,216.8z"/>
<g>
	<path d="M1759.3,306l12.1-3.9v3l-5.1,1.5c-1.4,0.4-2.8,0.8-4.3,1.1v0.1c1.5,0.3,2.9,0.7,4.3,1.1l5.2,1.5v2.9l-12.1-4.1V306H1759.3z
		"/>
	<path d="M1764.4,321.8v-4.5h-2.9v5h-2.3v-7.7h12.2v7.5h-2.3v-4.7h-2.5v4.5L1764.4,321.8L1764.4,321.8z"/>
	<path d="M1771.3,324.2c0.1,0.9,0.3,2.2,0.3,3.7c0,1.8-0.3,3.1-1,3.9c-0.6,0.7-1.4,1.1-2.5,1.1c-1.5,0-2.6-1.1-3-2.1h-0.1
		c-0.3,0.8-1.2,1.3-2.3,1.6c-1.4,0.4-3,0.8-3.4,1v-2.8c0.3-0.2,1.3-0.5,2.8-0.8s1.9-0.8,1.9-2V327h-4.8v-2.7h12.1V324.2z
		 M1766.1,326.9v1.1c0,1.4,0.7,2.2,1.7,2.2c1.1,0,1.7-0.8,1.7-2c0-0.7-0.1-1-0.1-1.2L1766.1,326.9L1766.1,326.9z"/>
	<path d="M1762.1,334.9c-0.4,0.7-0.8,1.9-0.8,3c0,1.3,0.5,1.9,1.3,1.9c0.8,0,1.2-0.6,1.7-2c0.7-2,1.8-3.3,3.6-3.3
		c2.1,0,3.7,1.7,3.7,4.6c0,1.4-0.3,2.4-0.6,3.1l-2.2-0.6c0.2-0.5,0.6-1.3,0.6-2.5s-0.5-1.8-1.2-1.8c-0.8,0-1.1,0.7-1.7,2.2
		c-0.8,2.1-1.9,3.2-3.6,3.2c-2,0-3.8-1.6-3.8-4.9c0-1.4,0.4-2.8,0.7-3.4L1762.1,334.9z"/>
	<path d="M1771.4,347.3h-12.1v-2.8h12.1V347.3z"/>
	<path d="M1765.5,360.8c-4,0-6.4-2.4-6.4-6s2.7-5.7,6.2-5.7c3.6,0,6.4,2.3,6.4,5.9C1771.6,358.7,1768.8,360.8,1765.5,360.8z
		 M1765.3,352c-2.4,0-4.1,1.1-4.1,3s1.8,2.9,4.1,2.9c2.2,0,4.1-1,4.1-2.9C1769.5,353.1,1767.7,352,1765.3,352z"/>
	<path d="M1759.3,362.6h12.1v3.2l-4.4,2.5c-1.3,0.7-2.8,1.4-4.2,2v0.1c1.6-0.2,3.2-0.2,5.1-0.2h3.5v2.5h-12.1v-2.9l4.7-2.6
		c1.3-0.7,2.9-1.5,4.3-2.1V365c-1.6,0.1-3.3,0.1-5.3,0.1h-3.7V362.6z"/>
	<path d="M1762,378.7c-0.3,0.5-0.7,1.6-0.7,2.7c0,1.4,0.7,2.1,1.6,2.1c1.2,0,1.7-1.2,1.7-2.4V380h2v1.1c0,0.9,0.4,2.1,1.4,2.1
		c0.7,0,1.2-0.6,1.2-1.7c0-1-0.4-2-0.7-2.4l2-0.6c0.5,0.7,0.9,2.1,0.9,3.6c0,2.5-1.3,3.9-2.9,3.9c-1.2,0-2.2-0.7-2.7-2.1l0,0
		c-0.3,1.4-1.3,2.5-2.8,2.5c-2.1,0-3.6-1.8-3.6-4.8c0-1.5,0.4-2.8,0.8-3.5L1762,378.7z"/>
</g>
<text transform="matrix(1 0 0 1 1628.4385 352.3613)" class="st0 st1 st2">Top</text>
<path class="st4" d="M1693.4,278.5c0,2.2-1.7,3.9-3.9,3.9c-2.1,0-3.9-1.7-3.9-3.9c0-2.2,1.8-3.9,3.9-3.9
	C1691.6,274.6,1693.4,276.3,1693.4,278.5z"/>
<path class="st4" d="M1528.9,278.4c0,2.2-1.7,3.9-3.9,3.9c-2.1,0-3.9-1.7-3.9-3.9c0-2.2,1.8-3.9,3.9-3.9
	C1527.1,274.5,1528.9,276.2,1528.9,278.4z"/>
<path class="st4" d="M1528.7,417.3c0,2.2-1.7,3.9-3.9,3.9c-2.2,0-3.9-1.7-3.9-3.9c0-2.1,1.8-3.9,3.9-3.9
	C1526.9,413.4,1528.7,415.2,1528.7,417.3z"/>
<path class="st4" d="M1693.3,417.3c0,2.2-1.7,3.9-3.9,3.9c-2.2,0-3.9-1.7-3.9-3.9c0-2.1,1.8-3.9,3.9-3.9
	C1691.5,413.4,1693.3,415.2,1693.3,417.3z"/>
</svg>
